<svg width="96" height="96" viewBox="0 0 96 96" fill="none" xmlns="http://www.w3.org/2000/svg">
<g id="Component 48">
<path id="Vector" fill-rule="evenodd" clip-rule="evenodd" d="M17.658 71.4361C18.345 71.0362 19.1627 70.9253 19.9314 71.1278C20.7002 71.3303 21.3571 71.8296 21.758 72.5161C25.066 78.1881 30.122 82.4761 36.358 85.2601C36.7178 85.4206 37.0425 85.6504 37.3135 85.9363C37.5845 86.2223 37.7966 86.5588 37.9375 86.9267C38.0785 87.2946 38.1456 87.6867 38.135 88.0805C38.1245 88.4744 38.0364 88.8623 37.876 89.2221C37.7155 89.5819 37.4857 89.9066 37.1998 90.1777C36.9138 90.4487 36.5773 90.6607 36.2094 90.8017C35.8415 90.9426 35.4494 91.0097 35.0555 90.9992C34.6617 90.9886 34.2738 90.9006 33.914 90.7401C26.666 87.5041 20.59 82.4201 16.578 75.5401C16.3793 75.1998 16.2497 74.8236 16.1964 74.4331C16.1432 74.0426 16.1674 73.6455 16.2677 73.2644C16.368 72.8832 16.5424 72.5256 16.7809 72.2119C17.0195 71.8982 17.3175 71.6346 17.658 71.4361ZM75.626 15.6881C71.57 11.5441 65.786 10.0201 60.122 11.6281C59.3667 11.8157 58.5681 11.7024 57.8948 11.3123C57.2214 10.9221 56.7261 10.2856 56.5132 9.53703C56.3004 8.78849 56.3868 7.98654 56.7541 7.30048C57.1214 6.61442 57.741 6.09796 58.482 5.86011C66.234 3.65211 74.302 5.76011 79.914 11.4921C80.4578 12.0632 80.7549 12.8254 80.741 13.6139C80.7271 14.4024 80.4033 15.1537 79.8397 15.7052C79.276 16.2567 78.5179 16.5642 77.7293 16.561C76.9407 16.5578 76.1851 16.2442 75.626 15.6881ZM44.762 13.2321C43.906 11.7641 41.41 10.8721 38.878 12.3241C36.35 13.7641 35.906 16.3121 36.75 17.7521L46.85 35.0801C47.2385 35.7669 47.3409 36.5791 47.1348 37.3408C46.9287 38.1025 46.4308 38.7524 45.749 39.1496C45.0672 39.5468 44.2563 39.6594 43.4921 39.4629C42.7278 39.2665 42.0718 38.7769 41.666 38.1001L28.202 15.0001C27.346 13.5321 24.85 12.6401 22.314 14.0921C19.79 15.5321 19.346 18.0801 20.186 19.5201L35.342 45.5081C35.5405 45.8485 35.6701 46.2247 35.7233 46.6151C35.7765 47.0056 35.7522 47.4027 35.6519 47.7838C35.5517 48.1649 35.3773 48.5225 35.1388 48.8362C34.9003 49.1499 34.6024 49.4136 34.262 49.6121C33.9216 49.8107 33.5454 49.9402 33.155 49.9934C32.7645 50.0466 32.3674 50.0224 31.9863 49.9221C31.6052 49.8218 31.2476 49.6474 30.9339 49.4089C30.6202 49.1704 30.3565 48.8725 30.158 48.5321L23.418 36.9801C22.562 35.5121 20.066 34.6201 17.534 36.0721C15.006 37.5121 14.562 40.0561 15.406 41.5001L30.558 67.4881C36.994 78.5241 52.878 82.1041 66.342 74.4081C79.802 66.7161 84.586 51.3521 78.166 40.3401L68.062 23.0161C67.206 21.5481 64.71 20.6561 62.178 22.1041C59.65 23.5481 59.206 26.0921 60.05 27.5361L66.782 39.0841C66.9823 39.4263 67.1128 39.8049 67.1659 40.1979C67.2191 40.5908 67.1937 40.9905 67.0914 41.3736C66.9892 41.7567 66.8119 42.1158 66.57 42.43C66.3281 42.7442 66.0262 43.0073 65.682 43.2041C59.51 46.7241 57.618 53.5441 60.322 58.1761C60.5205 58.5165 60.6501 58.8927 60.7033 59.2831C60.7565 59.6736 60.7322 60.0707 60.6319 60.4518C60.5317 60.8329 60.3573 61.1905 60.1188 61.5042C59.8803 61.8179 59.5824 62.0816 59.242 62.2801C58.9016 62.4787 58.5254 62.6082 58.135 62.6614C57.7445 62.7146 57.3474 62.6904 56.9663 62.5901C56.5852 62.4898 56.2276 62.3154 55.9139 62.0769C55.6002 61.8384 55.3365 61.5405 55.138 61.2001C51.486 54.9401 52.962 47.4001 57.678 42.0721C58.998 40.5841 59.446 38.4161 58.446 36.6961L44.762 13.2321Z" fill="white"/>
</g>
</svg>
