<svg width="96" height="96" viewBox="0 0 96 96" fill="none" xmlns="http://www.w3.org/2000/svg">
<g id="Component 48">
<path id="Vector" d="M40 69C38.6739 69 37.4021 68.4732 36.4645 67.5355C35.5268 66.5979 35 65.3261 35 64C35 62.6739 35.5268 61.4021 36.4645 60.4645C37.4021 59.5268 38.6739 59 40 59C41.3261 59 42.5979 59.5268 43.5355 60.4645C44.4732 61.4021 45 62.6739 45 64C45 65.3261 44.4732 66.5979 43.5355 67.5355C42.5979 68.4732 41.3261 69 40 69ZM61 32C61 33.3261 60.4732 34.5979 59.5355 35.5355C58.5979 36.4732 57.3261 37 56 37C54.6739 37 53.4021 36.4732 52.4645 35.5355C51.5268 34.5979 51 33.3261 51 32C51 30.6739 51.5268 29.4021 52.4645 28.4645C53.4021 27.5268 54.6739 27 56 27C57.3261 27 58.5979 27.5268 59.5355 28.4645C60.4732 29.4021 61 30.6739 61 32Z" fill="white"/>
<path id="Vector_2" fill-rule="evenodd" clip-rule="evenodd" d="M8 48C8 29.144 8 19.716 13.856 13.856C19.72 8 29.144 8 48 8C66.856 8 76.284 8 82.14 13.856C88 19.72 88 29.144 88 48C88 66.856 88 76.284 82.14 82.14C76.288 88 66.856 88 48 88C29.144 88 19.716 88 13.856 82.14C8 76.288 8 66.856 8 48ZM40 75C37.0826 75 34.2847 73.8411 32.2218 71.7782C30.1589 69.7153 29 66.9174 29 64C29 61.0826 30.1589 58.2847 32.2218 56.2218C34.2847 54.1589 37.0826 53 40 53C42.9174 53 45.7153 54.1589 47.7782 56.2218C49.8411 58.2847 51 61.0826 51 64C51 66.9174 49.8411 69.7153 47.7782 71.7782C45.7153 73.8411 42.9174 75 40 75ZM67 32C67 34.9174 65.8411 37.7153 63.7782 39.7782C61.7153 41.8411 58.9174 43 56 43C53.0826 43 50.2847 41.8411 48.2218 39.7782C46.1589 37.7153 45 34.9174 45 32C45 29.0826 46.1589 26.2847 48.2218 24.2218C50.2847 22.1589 53.0826 21 56 21C58.9174 21 61.7153 22.1589 63.7782 24.2218C65.8411 26.2847 67 29.0826 67 32ZM53 64C53 63.2043 53.3161 62.4413 53.8787 61.8787C54.4413 61.3161 55.2043 61 56 61H76C76.7956 61 77.5587 61.3161 78.1213 61.8787C78.6839 62.4413 79 63.2043 79 64C79 64.7957 78.6839 65.5587 78.1213 66.1213C77.5587 66.6839 76.7956 67 76 67H56C55.2043 67 54.4413 66.6839 53.8787 66.1213C53.3161 65.5587 53 64.7957 53 64ZM40 29C40.7957 29 41.5587 29.3161 42.1213 29.8787C42.6839 30.4413 43 31.2044 43 32C43 32.7956 42.6839 33.5587 42.1213 34.1213C41.5587 34.6839 40.7957 35 40 35H20C19.2044 35 18.4413 34.6839 17.8787 34.1213C17.3161 33.5587 17 32.7956 17 32C17 31.2044 17.3161 30.4413 17.8787 29.8787C18.4413 29.3161 19.2044 29 20 29H40ZM17 64C17 63.2043 17.3161 62.4413 17.8787 61.8787C18.4413 61.3161 19.2044 61 20 61H24C24.7956 61 25.5587 61.3161 26.1213 61.8787C26.6839 62.4413 27 63.2043 27 64C27 64.7957 26.6839 65.5587 26.1213 66.1213C25.5587 66.6839 24.7956 67 24 67H20C19.2044 67 18.4413 66.6839 17.8787 66.1213C17.3161 65.5587 17 64.7957 17 64ZM76 29C76.7956 29 77.5587 29.3161 78.1213 29.8787C78.6839 30.4413 79 31.2044 79 32C79 32.7956 78.6839 33.5587 78.1213 34.1213C77.5587 34.6839 76.7956 35 76 35H72C71.2043 35 70.4413 34.6839 69.8787 34.1213C69.3161 33.5587 69 32.7956 69 32C69 31.2044 69.3161 30.4413 69.8787 29.8787C70.4413 29.3161 71.2043 29 72 29H76Z" fill="white"/>
</g>
</svg>
