<svg width="96" height="96" viewBox="0 0 96 96" fill="none" xmlns="http://www.w3.org/2000/svg">
<g id="Component 48">
<path id="Vector" d="M66 17C70.5087 17 74.8327 18.7911 78.0208 21.9792C81.2089 25.1673 83 29.4913 83 34C83 38.5087 81.2089 42.8327 78.0208 46.0208C74.8327 49.209 70.5087 51 66 51H30C27.0826 51 24.2847 52.1589 22.2218 54.2218C20.1589 56.2847 19 59.0826 19 62C19 64.9174 20.1589 67.7153 22.2218 69.7782C24.2847 71.8411 27.0826 73 30 73H72.76L69.88 70.12C69.5853 69.8454 69.3488 69.5142 69.1849 69.1462C69.0209 68.7782 68.9327 68.3809 68.9256 67.9781C68.9185 67.5753 68.9926 67.1752 69.1435 66.8016C69.2944 66.4281 69.519 66.0887 69.8038 65.8039C70.0887 65.519 70.4281 65.2944 70.8016 65.1435C71.1752 64.9926 71.5753 64.9185 71.9781 64.9257C72.3809 64.9328 72.7782 65.0209 73.1462 65.1849C73.5142 65.3489 73.8454 65.5853 74.12 65.88L82.12 73.88C82.6818 74.4425 82.9974 75.205 82.9974 76C82.9974 76.795 82.6818 77.5575 82.12 78.12L74.12 86.12C73.8454 86.4148 73.5142 86.6512 73.1462 86.8151C72.7782 86.9791 72.3809 87.0673 71.9781 87.0744C71.5753 87.0815 71.1752 87.0074 70.8016 86.8565C70.4281 86.7056 70.0887 86.481 69.8038 86.1962C69.519 85.9113 69.2944 85.572 69.1435 85.1984C68.9926 84.8249 68.9185 84.4247 68.9256 84.0219C68.9327 83.6191 69.0209 83.2219 69.1849 82.8539C69.3488 82.4859 69.5853 82.1547 69.88 81.88L72.76 79H30C25.4913 79 21.1673 77.2089 17.9792 74.0208C14.7911 70.8327 13 66.5087 13 62C13 57.4913 14.7911 53.1673 17.9792 49.9792C21.1673 46.7911 25.4913 45 30 45H66C68.9174 45 71.7153 43.8411 73.7782 41.7782C75.8411 39.7153 77 36.9174 77 34C77 31.0826 75.8411 28.2847 73.7782 26.2218C71.7153 24.1589 68.9174 23 66 23H31.42C30.7238 24.7211 29.4507 26.1464 27.8188 27.0318C26.187 27.9171 24.298 28.2073 22.4757 27.8527C20.6533 27.4981 19.011 26.5207 17.8303 25.088C16.6495 23.6553 16.0038 21.8566 16.0038 20C16.0038 18.1435 16.6495 16.3447 17.8303 14.912C19.011 13.4794 20.6533 12.502 22.4757 12.1473C24.298 11.7927 26.187 12.0829 27.8188 12.9683C29.4507 13.8536 30.7238 15.279 31.42 17H66Z" fill="white"/>
</g>
</svg>
