<svg width="24" height="25" viewBox="0 0 24 25" fill="none" xmlns="http://www.w3.org/2000/svg">
<g id="solar:masks-bold-duotone">
<path id="Vector" fill-rule="evenodd" clip-rule="evenodd" d="M15.913 9.88015L16.758 13.1771C17.752 17.0531 15.474 19.8351 13.732 21.3221C13.201 21.7761 12.935 22.0021 11.907 22.2901C10.879 22.5781 10.54 22.5201 9.86296 22.4061C7.64296 22.0291 4.33996 20.8091 3.34696 16.9331L2.50196 13.6361C2.06096 11.9171 1.84096 11.0581 2.13196 10.3831C2.22996 10.1571 2.36596 9.95115 2.53296 9.77415C3.03296 9.24915 3.87896 9.15815 5.57296 8.97615C6.82796 8.84115 7.45496 8.77415 8.06596 8.62615C8.2786 8.57406 8.48939 8.51469 8.69796 8.44815C9.29796 8.25815 9.87296 7.98815 11.024 7.44915C12.578 6.72215 13.355 6.35815 14.039 6.55215C14.268 6.61715 14.484 6.72415 14.677 6.86915C15.252 7.30115 15.473 8.16015 15.913 9.87915M6.00496 13.8671C6.03396 13.5711 6.26496 13.2671 6.64296 13.1651C7.02196 13.0631 7.37296 13.2121 7.54596 13.4551C7.60328 13.5353 7.67582 13.6033 7.75943 13.6554C7.84304 13.7074 7.9361 13.7425 8.03327 13.7586C8.13045 13.7747 8.22985 13.7716 8.32579 13.7493C8.42174 13.727 8.51235 13.686 8.59246 13.6286C8.67256 13.5713 8.74059 13.4988 8.79267 13.4152C8.84474 13.3316 8.87983 13.2385 8.89594 13.1413C8.91205 13.0442 8.90887 12.9448 8.88656 12.8488C8.86426 12.7529 8.82328 12.6623 8.76596 12.5821C8.21596 11.8121 7.21396 11.4591 6.25496 11.7161C5.29496 11.9731 4.60396 12.7801 4.51196 13.7221C4.49273 13.9201 4.55294 14.1176 4.67934 14.2712C4.80573 14.4248 4.98797 14.5219 5.18596 14.5411C5.38394 14.5604 5.58145 14.5002 5.73505 14.3738C5.88864 14.2474 5.98573 14.0651 6.00496 13.8671ZM12.439 11.6121C12.06 11.7131 11.829 12.0181 11.801 12.3141C11.7817 12.5121 11.6846 12.6944 11.531 12.8208C11.3775 12.9472 11.1799 13.0074 10.982 12.9881C10.784 12.9689 10.6017 12.8718 10.4753 12.7182C10.3489 12.5646 10.2887 12.3671 10.308 12.1691C10.4 11.2261 11.092 10.4191 12.051 10.1631C13.01 9.90615 14.012 10.2581 14.563 11.0291C14.623 11.1091 14.6664 11.2002 14.6906 11.2972C14.7149 11.3942 14.7196 11.495 14.7043 11.5938C14.6891 11.6926 14.6542 11.7873 14.6018 11.8725C14.5494 11.9576 14.4805 12.0314 14.3992 12.0895C14.3179 12.1476 14.2258 12.1889 14.1283 12.2109C14.0308 12.2329 13.9298 12.2352 13.8314 12.2177C13.733 12.2001 13.6391 12.1631 13.5552 12.1087C13.4713 12.0544 13.3992 11.9838 13.343 11.9011C13.169 11.6591 12.818 11.5111 12.439 11.6111M13.201 16.7291L13.648 16.1271C13.8062 16.2454 13.9114 16.4213 13.9407 16.6166C13.97 16.812 13.9211 17.011 13.8046 17.1705C13.688 17.33 13.5132 17.437 13.3182 17.4684C13.1232 17.4998 12.9237 17.453 12.763 17.3381L12.753 17.3321C12.6004 17.2452 12.4374 17.178 12.268 17.1321C11.908 17.0341 11.339 16.9691 10.583 17.1721C9.82696 17.3741 9.36696 17.7151 9.10296 17.9801C8.97901 18.1046 8.87148 18.2444 8.78296 18.3961L8.77796 18.4061C8.69746 18.5881 8.54799 18.7306 8.36242 18.8023C8.17686 18.8741 7.97039 18.8691 7.78846 18.7886C7.60652 18.7082 7.46401 18.5587 7.39227 18.3731C7.32054 18.1876 7.32546 17.9811 7.40596 17.7991L7.40696 17.7981L7.40896 17.7941L7.41296 17.7851L7.42296 17.7631L7.45596 17.6991C7.49144 17.6322 7.52981 17.5668 7.57096 17.5031C7.67096 17.3471 7.82296 17.1431 8.03896 16.9251C8.47596 16.4851 9.16395 16.0011 10.195 15.7251C11.226 15.4481 12.065 15.5251 12.662 15.6871C12.958 15.7671 13.192 15.8671 13.356 15.9531C13.4447 15.9985 13.5309 16.049 13.614 16.1041L13.634 16.1191L13.642 16.1241L13.645 16.1271H13.648V16.1291L13.201 16.7291Z" fill="white"/>
<path id="Vector_2" opacity="0.6" d="M20.6518 12.9331L21.4968 9.63615C21.9368 7.91715 22.1578 7.05815 21.8668 6.38315C21.7701 6.1581 21.6343 5.95193 21.4658 5.77415C20.9658 5.24915 20.1188 5.15815 18.4258 4.97615C17.1708 4.84115 16.5438 4.77415 15.9328 4.62615C15.7202 4.57407 15.5094 4.5147 15.3008 4.44815C14.7008 4.25815 14.1258 3.98815 12.9748 3.44915C11.4208 2.72215 10.6438 2.35815 9.9598 2.55215C9.72944 2.61766 9.51314 2.72512 9.3218 2.86915C8.7468 3.30115 8.5258 4.16015 8.0858 5.87915L7.3858 8.60915L7.3418 8.76615C7.80151 8.69793 8.25474 8.59156 8.6968 8.44815C9.2968 8.25815 9.8728 7.98815 11.0238 7.44915C12.5778 6.72215 13.3538 6.35815 14.0378 6.55215C14.2678 6.61715 14.4838 6.72415 14.6768 6.86915C15.2518 7.30115 15.4718 8.16015 15.9128 9.87915L16.7578 13.1771C17.2028 14.9121 16.9918 16.4291 16.4658 17.7081L16.4988 17.7211C18.2398 16.9711 19.9778 15.5641 20.6518 12.9331Z" fill="white"/>
<path id="Vector_3" opacity="0.6" d="M15.7282 9.16581C15.8038 9.248 15.8968 9.31232 16.0003 9.3541C16.1039 9.39589 16.2154 9.41409 16.3269 9.40739C16.4383 9.40068 16.5469 9.36924 16.6447 9.31535C16.7425 9.26146 16.827 9.18646 16.8922 9.09581C17.0652 8.85281 17.4162 8.70381 17.7952 8.80581C18.1742 8.90681 18.4052 9.21181 18.4332 9.50781C18.4428 9.60584 18.4715 9.70104 18.5178 9.78797C18.5641 9.87489 18.6271 9.95185 18.7031 10.0144C18.7792 10.077 18.8668 10.124 18.961 10.1527C19.0553 10.1815 19.1542 10.1913 19.2522 10.1818C19.3503 10.1723 19.4455 10.1436 19.5324 10.0972C19.6193 10.0509 19.6963 9.98795 19.7589 9.9119C19.8214 9.83585 19.8684 9.74822 19.8972 9.654C19.9259 9.55979 19.9358 9.46084 19.9262 9.36281C19.8342 8.42081 19.1422 7.61381 18.1832 7.35681C17.2242 7.09981 16.2222 7.45281 15.6712 8.22281C15.6104 8.30807 15.5681 8.40517 15.5472 8.50781C15.6052 8.70781 15.6652 8.92581 15.7282 9.16581ZM10.2402 7.81481C10.4702 7.70881 10.7282 7.58781 11.0242 7.44881C12.2202 6.88881 12.9562 6.54481 13.5442 6.50381C13.2336 6.16445 12.832 5.92148 12.3872 5.80381C11.4282 5.54681 10.4262 5.89981 9.87524 6.66981C9.80737 6.76473 9.7626 6.87418 9.74446 6.98944C9.72633 7.10471 9.73534 7.22262 9.77078 7.33379C9.80622 7.44496 9.86711 7.54633 9.94861 7.62983C10.0301 7.71334 10.13 7.77668 10.2402 7.81481Z" fill="white"/>
</g>
</svg>
