<svg width="24" height="25" viewBox="0 0 24 25" fill="none" xmlns="http://www.w3.org/2000/svg">
<g id="solar:atom-bold-duotone">
<path id="Vector" opacity="0.3" d="M16.4711 16.9711C21.4101 12.0321 23.4111 6.02708 20.9421 3.55808C18.4731 1.08808 12.4681 3.09008 7.52911 8.02808C2.59011 12.9681 0.589106 18.9731 3.05811 21.4421C5.52811 23.9121 11.5331 21.9091 16.4711 16.9711Z" fill="white"/>
<path id="Vector_2" opacity="0.3" d="M7.52911 16.9711C2.59011 12.0331 0.589106 6.02708 3.05811 3.55808C5.52711 1.08808 11.5321 3.09008 16.4711 8.02808C21.4101 12.9681 23.4111 18.9731 20.9421 21.4421C18.4721 23.9121 12.4671 21.9091 7.52911 16.9711Z" fill="white"/>
<path id="Vector_3" d="M14.5 12.5C14.5 13.163 14.2366 13.7989 13.7678 14.2678C13.2989 14.7366 12.663 15 12 15C11.337 15 10.7011 14.7366 10.2322 14.2678C9.76339 13.7989 9.5 13.163 9.5 12.5C9.5 11.837 9.76339 11.2011 10.2322 10.7322C10.7011 10.2634 11.337 10 12 10C12.663 10 13.2989 10.2634 13.7678 10.7322C14.2366 11.2011 14.5 11.837 14.5 12.5Z" fill="white"/>
</g>
</svg>
