<svg width="24" height="25" viewBox="0 0 24 25" fill="none" xmlns="http://www.w3.org/2000/svg">
<g id="solar:clipboard-list-bold-duotone">
<path id="Vector" opacity="0.5" d="M21 16.498V10.498C21 7.67 21 6.256 20.121 5.377C19.353 4.609 18.175 4.512 16 4.5H8C5.825 4.512 4.647 4.609 3.879 5.377C3 6.256 3 7.67 3 10.498V16.498C3 19.327 3 20.741 3.879 21.62C4.757 22.498 6.172 22.498 9 22.498H15C17.828 22.498 19.243 22.498 20.121 21.62C21 20.74 21 19.327 21 16.498Z" fill="white"/>
<path id="Vector_2" d="M8 4C8 3.60218 8.15804 3.22064 8.43934 2.93934C8.72064 2.65804 9.10218 2.5 9.5 2.5H14.5C14.8978 2.5 15.2794 2.65804 15.5607 2.93934C15.842 3.22064 16 3.60218 16 4V5C16 5.39782 15.842 5.77936 15.5607 6.06066C15.2794 6.34196 14.8978 6.5 14.5 6.5H9.5C9.10218 6.5 8.72064 6.34196 8.43934 6.06066C8.15804 5.77936 8 5.39782 8 5V4Z" fill="white"/>
<path id="Vector_3" fill-rule="evenodd" clip-rule="evenodd" d="M6.25 11C6.25 10.8011 6.32902 10.6103 6.46967 10.4697C6.61032 10.329 6.80109 10.25 7 10.25H7.5C7.69891 10.25 7.88968 10.329 8.03033 10.4697C8.17098 10.6103 8.25 10.8011 8.25 11C8.25 11.1989 8.17098 11.3897 8.03033 11.5303C7.88968 11.671 7.69891 11.75 7.5 11.75H7C6.80109 11.75 6.61032 11.671 6.46967 11.5303C6.32902 11.3897 6.25 11.1989 6.25 11ZM9.75 11C9.75 10.8011 9.82902 10.6103 9.96967 10.4697C10.1103 10.329 10.3011 10.25 10.5 10.25H17C17.1989 10.25 17.3897 10.329 17.5303 10.4697C17.671 10.6103 17.75 10.8011 17.75 11C17.75 11.1989 17.671 11.3897 17.5303 11.5303C17.3897 11.671 17.1989 11.75 17 11.75H10.5C10.3011 11.75 10.1103 11.671 9.96967 11.5303C9.82902 11.3897 9.75 11.1989 9.75 11ZM6.25 14.5C6.25 14.3011 6.32902 14.1103 6.46967 13.9697C6.61032 13.829 6.80109 13.75 7 13.75H7.5C7.69891 13.75 7.88968 13.829 8.03033 13.9697C8.17098 14.1103 8.25 14.3011 8.25 14.5C8.25 14.6989 8.17098 14.8897 8.03033 15.0303C7.88968 15.171 7.69891 15.25 7.5 15.25H7C6.80109 15.25 6.61032 15.171 6.46967 15.0303C6.32902 14.8897 6.25 14.6989 6.25 14.5ZM9.75 14.5C9.75 14.3011 9.82902 14.1103 9.96967 13.9697C10.1103 13.829 10.3011 13.75 10.5 13.75H17C17.1989 13.75 17.3897 13.829 17.5303 13.9697C17.671 14.1103 17.75 14.3011 17.75 14.5C17.75 14.6989 17.671 14.8897 17.5303 15.0303C17.3897 15.171 17.1989 15.25 17 15.25H10.5C10.3011 15.25 10.1103 15.171 9.96967 15.0303C9.82902 14.8897 9.75 14.6989 9.75 14.5ZM6.25 18C6.25 17.8011 6.32902 17.6103 6.46967 17.4697C6.61032 17.329 6.80109 17.25 7 17.25H7.5C7.69891 17.25 7.88968 17.329 8.03033 17.4697C8.17098 17.6103 8.25 17.8011 8.25 18C8.25 18.1989 8.17098 18.3897 8.03033 18.5303C7.88968 18.671 7.69891 18.75 7.5 18.75H7C6.80109 18.75 6.61032 18.671 6.46967 18.5303C6.32902 18.3897 6.25 18.1989 6.25 18ZM9.75 18C9.75 17.8011 9.82902 17.6103 9.96967 17.4697C10.1103 17.329 10.3011 17.25 10.5 17.25H17C17.1989 17.25 17.3897 17.329 17.5303 17.4697C17.671 17.6103 17.75 17.8011 17.75 18C17.75 18.1989 17.671 18.3897 17.5303 18.5303C17.3897 18.671 17.1989 18.75 17 18.75H10.5C10.3011 18.75 10.1103 18.671 9.96967 18.5303C9.82902 18.3897 9.75 18.1989 9.75 18Z" fill="white"/>
</g>
</svg>
