<svg width="24" height="25" viewBox="0 0 24 25" fill="none" xmlns="http://www.w3.org/2000/svg">
<g id="solar:user-id-bold-duotone">
<path id="Vector" opacity="0.5" d="M14 4.5H10C6.229 4.5 4.343 4.5 3.172 5.672C2 6.843 2 8.729 2 12.5C2 16.271 2 18.157 3.172 19.328C4.343 20.5 6.229 20.5 10 20.5H14C17.771 20.5 19.657 20.5 20.828 19.328C22 18.157 22 16.271 22 12.5C22 8.729 22 6.843 20.828 5.672C19.657 4.5 17.771 4.5 14 4.5Z" fill="white"/>
<path id="Vector_2" d="M13.25 9.5C13.25 9.30109 13.329 9.11032 13.4697 8.96967C13.6103 8.82902 13.8011 8.75 14 8.75H19C19.1989 8.75 19.3897 8.82902 19.5303 8.96967C19.671 9.11032 19.75 9.30109 19.75 9.5C19.75 9.69891 19.671 9.88968 19.5303 10.0303C19.3897 10.171 19.1989 10.25 19 10.25H14C13.8011 10.25 13.6103 10.171 13.4697 10.0303C13.329 9.88968 13.25 9.69891 13.25 9.5ZM14.25 12.5C14.25 12.3011 14.329 12.1103 14.4697 11.9697C14.6103 11.829 14.8011 11.75 15 11.75H19C19.1989 11.75 19.3897 11.829 19.5303 11.9697C19.671 12.1103 19.75 12.3011 19.75 12.5C19.75 12.6989 19.671 12.8897 19.5303 13.0303C19.3897 13.171 19.1989 13.25 19 13.25H15C14.8011 13.25 14.6103 13.171 14.4697 13.0303C14.329 12.8897 14.25 12.6989 14.25 12.5ZM15.25 15.5C15.25 15.3011 15.329 15.1103 15.4697 14.9697C15.6103 14.829 15.8011 14.75 16 14.75H19C19.1989 14.75 19.3897 14.829 19.5303 14.9697C19.671 15.1103 19.75 15.3011 19.75 15.5C19.75 15.6989 19.671 15.8897 19.5303 16.0303C19.3897 16.171 19.1989 16.25 19 16.25H16C15.8011 16.25 15.6103 16.171 15.4697 16.0303C15.329 15.8897 15.25 15.6989 15.25 15.5ZM9 11.5C9.53043 11.5 10.0391 11.2893 10.4142 10.9142C10.7893 10.5391 11 10.0304 11 9.5C11 8.96957 10.7893 8.46086 10.4142 8.08579C10.0391 7.71071 9.53043 7.5 9 7.5C8.46957 7.5 7.96086 7.71071 7.58579 8.08579C7.21071 8.46086 7 8.96957 7 9.5C7 10.0304 7.21071 10.5391 7.58579 10.9142C7.96086 11.2893 8.46957 11.5 9 11.5ZM9 17.5C13 17.5 13 16.605 13 15.5C13 14.395 11.21 13.5 9 13.5C6.79 13.5 5 14.395 5 15.5C5 16.605 5 17.5 9 17.5Z" fill="white"/>
</g>
</svg>
