<svg width="24" height="25" viewBox="0 0 24 25" fill="none" xmlns="http://www.w3.org/2000/svg">
<g id="solar:users-group-two-rounded-bold-duotone">
<path id="Vector" d="M15.5 8C15.5 8.45963 15.4095 8.91475 15.2336 9.33939C15.0577 9.76403 14.7999 10.1499 14.4749 10.4749C14.1499 10.7999 13.764 11.0577 13.3394 11.2336C12.9148 11.4095 12.4596 11.5 12 11.5C11.5404 11.5 11.0852 11.4095 10.6606 11.2336C10.236 11.0577 9.85013 10.7999 9.52513 10.4749C9.20012 10.1499 8.94231 9.76403 8.76642 9.33939C8.59053 8.91475 8.5 8.45963 8.5 8C8.5 7.07174 8.86875 6.1815 9.52513 5.52513C10.1815 4.86875 11.0717 4.5 12 4.5C12.9283 4.5 13.8185 4.86875 14.4749 5.52513C15.1313 6.1815 15.5 7.07174 15.5 8Z" fill="white"/>
<path id="Vector_2" opacity="0.4" d="M19.5 8C19.5 8.66304 19.2366 9.29893 18.7678 9.76777C18.2989 10.2366 17.663 10.5 17 10.5C16.337 10.5 15.7011 10.2366 15.2322 9.76777C14.7634 9.29893 14.5 8.66304 14.5 8C14.5 7.33696 14.7634 6.70107 15.2322 6.23223C15.7011 5.76339 16.337 5.5 17 5.5C17.663 5.5 18.2989 5.76339 18.7678 6.23223C19.2366 6.70107 19.5 7.33696 19.5 8ZM4.5 8C4.5 8.66304 4.76339 9.29893 5.23223 9.76777C5.70107 10.2366 6.33696 10.5 7 10.5C7.66304 10.5 8.29893 10.2366 8.76777 9.76777C9.23661 9.29893 9.5 8.66304 9.5 8C9.5 7.33696 9.23661 6.70107 8.76777 6.23223C8.29893 5.76339 7.66304 5.5 7 5.5C6.33696 5.5 5.70107 5.76339 5.23223 6.23223C4.76339 6.70107 4.5 7.33696 4.5 8Z" fill="white"/>
<path id="Vector_3" d="M18 17C18 18.933 15.314 20.5 12 20.5C8.686 20.5 6 18.933 6 17C6 15.067 8.686 13.5 12 13.5C15.314 13.5 18 15.067 18 17Z" fill="white"/>
<path id="Vector_4" opacity="0.4" d="M22 17C22 18.38 20.21 19.5 18 19.5C15.79 19.5 14 18.38 14 17C14 15.62 15.79 14.5 18 14.5C20.21 14.5 22 15.62 22 17ZM2 17C2 18.38 3.79 19.5 6 19.5C8.21 19.5 10 18.38 10 17C10 15.62 8.21 14.5 6 14.5C3.79 14.5 2 15.62 2 17Z" fill="white"/>
</g>
</svg>
