<svg width="96" height="96" viewBox="0 0 96 96" fill="none" xmlns="http://www.w3.org/2000/svg">
<g id="teenyicons:quote-solid">
<path id="Vector" d="M15.9984 89.6016C13.4524 89.6016 11.0106 88.5901 9.21021 86.7898C7.40986 84.9894 6.39844 82.5476 6.39844 80.0016L6.39844 32.0016C6.39844 25.212 9.09557 18.7006 13.8965 13.8996C18.6974 9.09869 25.2089 6.40156 31.9984 6.40156V12.8016C26.9063 12.8016 22.0227 14.8244 18.422 18.4251C14.8213 22.0258 12.7984 26.9094 12.7984 32.0016L12.7984 51.2016H35.1984C37.7445 51.2016 40.1863 52.213 41.9867 54.0133C43.787 55.8137 44.7984 58.2555 44.7984 60.8016V80.0016C44.7984 82.5476 43.787 84.9894 41.9867 86.7898C40.1863 88.5901 37.7445 89.6016 35.1984 89.6016H15.9984ZM60.7984 89.6016C58.2524 89.6016 55.8106 88.5901 54.0102 86.7898C52.2099 84.9894 51.1984 82.5476 51.1984 80.0016L51.1984 32.0016C51.1984 25.212 53.8956 18.7006 58.6965 13.8996C63.4974 9.09869 70.0089 6.40156 76.7984 6.40156V12.8016C71.7063 12.8016 66.8227 14.8244 63.222 18.4251C59.6213 22.0258 57.5984 26.9094 57.5984 32.0016V51.2016H79.9984C82.5445 51.2016 84.9863 52.213 86.7867 54.0133C88.587 55.8137 89.5984 58.2555 89.5984 60.8016V80.0016C89.5984 82.5476 88.587 84.9894 86.7867 86.7898C84.9863 88.5901 82.5445 89.6016 79.9984 89.6016L60.7984 89.6016Z" fill="white"/>
</g>
</svg>
