<svg width="56" height="56" viewBox="0 0 56 56" fill="none" xmlns="http://www.w3.org/2000/svg">
<g id="&#240;&#159;&#166;&#134; icon &#34;zoom&#34;">
<path id="Vector" d="M0 18.6667C0 8.35735 8.35735 0 18.6667 0H37.3333C47.6427 0 56 8.35735 56 18.6667V37.3333C56 47.6427 47.6427 56 37.3333 56H18.6667C8.35735 56 0 47.6427 0 37.3333V18.6667Z" fill="#3984FD"/>
<g id="Group">
<path id="Vector_2" d="M11.6665 21.0001C11.6665 19.7114 12.7112 18.6667 13.9998 18.6667H27.9998C31.8659 18.6667 34.9998 21.8008 34.9998 25.6667V35.0001C34.9998 36.2888 33.9552 37.3334 32.6665 37.3334H18.6665C14.8005 37.3334 11.6665 34.1995 11.6665 30.3334V21.0001Z" fill="white"/>
<path id="Vector_3" d="M36.167 27.4202C36.167 26.2899 36.5772 25.1979 37.3215 24.3472L41.2667 19.8386C42.3307 18.6225 44.3337 19.3751 44.3337 20.991V35.0093C44.3337 36.6252 42.3307 37.3777 41.2667 36.1616L37.3215 31.6531C36.5772 30.8024 36.167 29.7104 36.167 28.5801V27.4202Z" fill="white"/>
</g>
</g>
</svg>
