<svg width="96" height="96" viewBox="0 0 96 96" fill="none" xmlns="http://www.w3.org/2000/svg">
<g id="Component 48">
<path id="Vector" d="M62 30C62 31.8385 61.6379 33.659 60.9343 35.3576C60.2307 37.0561 59.1995 38.5995 57.8995 39.8995C56.5995 41.1995 55.0561 42.2307 53.3576 42.9343C51.659 43.6379 49.8385 44 48 44C46.1615 44 44.341 43.6379 42.6424 42.9343C40.9439 42.2307 39.4005 41.1995 38.1005 39.8995C36.8005 38.5995 35.7693 37.0561 35.0657 35.3576C34.3621 33.659 34 31.8385 34 30C34 26.287 35.475 22.726 38.1005 20.1005C40.726 17.475 44.287 16 48 16C51.713 16 55.274 17.475 57.8995 20.1005C60.525 22.726 62 26.287 62 30ZM72 66C72 73.732 61.256 80 48 80C34.744 80 24 73.732 24 66C24 58.268 34.744 52 48 52C61.256 52 72 58.268 72 66ZM28.488 20C29.2 20 29.888 20.068 30.56 20.2C28.876 23.1913 27.9942 26.5673 28 30C28 33.472 28.884 36.74 30.44 39.584C29.808 39.704 29.16 39.764 28.488 39.764C22.832 39.764 18.244 35.34 18.244 29.884C18.244 24.424 22.832 20 28.488 20ZM21.788 75.944C19.52 73.228 18 69.896 18 66C18 62.224 19.428 58.976 21.584 56.308C13.96 56.9 8 61.068 8 66.116C8 71.216 14.068 75.416 21.788 75.944ZM68 30C68 33.472 67.116 36.74 65.56 39.584C66.188 39.704 66.84 39.764 67.512 39.764C73.168 39.764 77.752 35.34 77.752 29.884C77.752 24.424 73.168 20 67.512 20C66.8 20 66.112 20.068 65.44 20.2C67.068 23.096 68 26.44 68 30ZM74.212 75.944C81.932 75.416 88 71.216 88 66.116C88 61.064 82.036 56.9 74.416 56.308C76.576 58.976 78 62.224 78 66C78 69.896 76.48 73.228 74.212 75.944Z" fill="white"/>
</g>
</svg>
