<svg width="96" height="96" viewBox="0 0 96 96" fill="none" xmlns="http://www.w3.org/2000/svg">
<g id="Component 48">
<path id="Vector" fill-rule="evenodd" clip-rule="evenodd" d="M31.6259 17.0238C31.1009 14.9711 30.042 13.094 28.5566 11.583C27.0713 10.072 25.2126 8.98113 23.1692 8.42109C21.1258 7.86104 18.9705 7.85182 16.9224 8.39435C14.8743 8.93688 13.0063 10.0118 11.5081 11.51C10.0099 13.0082 8.93493 14.8763 8.3924 16.9244C7.84986 18.9725 7.85909 21.1277 8.41913 23.1711C8.97918 25.2145 10.0701 27.0733 11.581 28.5586C13.092 30.0439 14.9692 31.1028 17.0219 31.6278C17.0062 31.7512 16.9982 31.8754 16.9979 31.9998V63.9998C16.9979 64.1278 17.0059 64.2518 17.0219 64.3718C14.9692 64.8968 13.092 65.9557 11.581 67.441C10.0701 68.9264 8.97918 70.7851 8.41913 72.8285C7.85909 74.8719 7.84986 77.0271 8.3924 79.0753C8.93493 81.1234 10.0099 82.9914 11.5081 84.4896C13.0063 85.9878 14.8743 87.0628 16.9224 87.6053C18.9705 88.1478 21.1258 88.1386 23.1692 87.5786C25.2126 87.0185 27.0713 85.9276 28.5566 84.4166C30.042 82.9057 31.1009 81.0285 31.6259 78.9758C31.7459 78.9918 31.8699 78.9998 31.9979 78.9998H63.9979C64.1222 78.9995 64.2465 78.9915 64.3699 78.9758C64.8949 81.0285 65.9538 82.9057 67.4391 84.4166C68.9244 85.9276 70.7832 87.0185 72.8266 87.5786C74.87 88.1386 77.0252 88.1478 79.0733 87.6053C81.1214 87.0628 82.9895 85.9878 84.4877 84.4896C85.9858 82.9914 87.0608 81.1234 87.6033 79.0753C88.1459 77.0271 88.1366 74.8719 87.5766 72.8285C87.0166 70.7851 85.9256 68.9264 84.4147 67.441C82.9037 65.9557 81.0266 64.8968 78.9739 64.3718C78.9896 64.2484 78.9976 64.1242 78.9979 63.9998V31.9998C78.9976 31.8754 78.9895 31.7512 78.9739 31.6278C81.0266 31.1028 82.9037 30.0439 84.4147 28.5586C85.9256 27.0733 87.0166 25.2145 87.5766 23.1711C88.1366 21.1277 88.1459 18.9725 87.6033 16.9244C87.0608 14.8763 85.9858 13.0082 84.4877 11.51C82.9895 10.0118 81.1214 8.93688 79.0733 8.39435C77.0252 7.85182 74.87 7.86104 72.8266 8.42109C70.7832 8.98113 68.9244 10.072 67.4391 11.583C65.9538 13.094 64.8949 14.9711 64.3699 17.0238C64.2465 17.0082 64.1222 17.0002 63.9979 16.9998H31.9979C31.8735 17.0002 31.7493 17.0082 31.6259 17.0238ZM22.9739 31.6278C22.9899 31.7478 22.9979 31.8718 22.9979 31.9998V63.9998C22.9975 64.1242 22.9895 64.2484 22.9739 64.3718C25.0585 64.9072 26.9612 65.9926 28.4831 67.5145C30.0051 69.0365 31.0904 70.9391 31.6259 73.0238C31.7493 73.0081 31.8735 73.0001 31.9979 72.9998H63.9979C64.1222 73.0001 64.2465 73.0081 64.3699 73.0238C64.9053 70.9391 65.9907 69.0365 67.5126 67.5145C69.0345 65.9926 70.9372 64.9072 73.0219 64.3718C73.0062 64.2484 72.9981 64.1242 72.9979 63.9998V31.9998C72.9979 31.8718 73.0059 31.7478 73.0219 31.6278C70.9372 31.0924 69.0345 30.007 67.5126 28.4851C65.9907 26.9632 64.9053 25.0605 64.3699 22.9758C64.2465 22.9915 64.1222 22.9995 63.9979 22.9998H31.9979C31.8735 22.9995 31.7493 22.9914 31.6259 22.9758C31.0904 25.0605 30.0051 26.9632 28.4831 28.4851C26.9612 30.007 25.0585 31.0924 22.9739 31.6278Z" fill="white"/>
</g>
</svg>
