<svg width="96" height="96" viewBox="0 0 96 96" fill="none" xmlns="http://www.w3.org/2000/svg">
<g id="Component 48">
<path id="Vector" fill-rule="evenodd" clip-rule="evenodd" d="M43.388 87.736C23.468 85.448 8 68.532 8 48C8 25.908 25.908 8 48 8C70.092 8 88 25.908 88 48C88 68.628 74.868 66.932 63.656 65.48C57.184 64.644 51.356 63.892 49.048 67.552C47.468 70.056 49.176 73.176 51.268 75.268C51.8894 75.8894 52.3824 76.6271 52.7187 77.4391C53.055 78.251 53.2281 79.1212 53.2281 80C53.2281 80.8788 53.055 81.749 52.7187 82.5609C52.3824 83.3729 51.8894 84.1106 51.268 84.732C49.176 86.824 46.328 88.076 43.388 87.736ZM44.34 28C44.34 29.5913 43.7079 31.1174 42.5826 32.2426C41.4574 33.3679 39.9313 34 38.34 34C36.7487 34 35.2226 33.3679 34.0974 32.2426C32.9721 31.1174 32.34 29.5913 32.34 28C32.34 26.4087 32.9721 24.8826 34.0974 23.7574C35.2226 22.6321 36.7487 22 38.34 22C39.9313 22 41.4574 22.6321 42.5826 23.7574C43.7079 24.8826 44.34 26.4087 44.34 28ZM26 52C27.5913 52 29.1174 51.3679 30.2426 50.2426C31.3679 49.1174 32 47.5913 32 46C32 44.4087 31.3679 42.8826 30.2426 41.7574C29.1174 40.6321 27.5913 40 26 40C24.4087 40 22.8826 40.6321 21.7574 41.7574C20.6321 42.8826 20 44.4087 20 46C20 47.5913 20.6321 49.1174 21.7574 50.2426C22.8826 51.3679 24.4087 52 26 52ZM70 52C71.5913 52 73.1174 51.3679 74.2426 50.2426C75.3679 49.1174 76 47.5913 76 46C76 44.4087 75.3679 42.8826 74.2426 41.7574C73.1174 40.6321 71.5913 40 70 40C68.4087 40 66.8826 40.6321 65.7574 41.7574C64.6321 42.8826 64 44.4087 64 46C64 47.5913 64.6321 49.1174 65.7574 50.2426C66.8826 51.3679 68.4087 52 70 52ZM58 34C58.7879 34 59.5681 33.8448 60.2961 33.5433C61.0241 33.2417 61.6855 32.7998 62.2426 32.2426C62.7998 31.6855 63.2417 31.0241 63.5433 30.2961C63.8448 29.5681 64 28.7879 64 28C64 27.2121 63.8448 26.4319 63.5433 25.7039C63.2417 24.9759 62.7998 24.3145 62.2426 23.7574C61.6855 23.2002 61.0241 22.7583 60.2961 22.4567C59.5681 22.1552 58.7879 22 58 22C56.4087 22 54.8826 22.6321 53.7574 23.7574C52.6321 24.8826 52 26.4087 52 28C52 29.5913 52.6321 31.1174 53.7574 32.2426C54.8826 33.3679 56.4087 34 58 34Z" fill="white"/>
</g>
</svg>
