<svg width="56" height="56" viewBox="0 0 56 56" fill="none" xmlns="http://www.w3.org/2000/svg">
<g id="&#240;&#159;&#166;&#134; icon &#34;figma&#34;">
<path id="Vector" d="M56 8.75C56 3.91752 52.0825 0 47.25 0H8.75C3.91752 0 0 3.91752 0 8.75V47.25C0 52.0825 3.91752 56 8.75 56H47.25C52.0825 56 56 52.0825 56 47.25V8.75Z" fill="#1B1A1A"/>
<path id="Vector_2" d="M27.9712 27.9999C27.9712 25.4227 30.0605 23.3332 32.6377 23.3332C35.2151 23.3332 37.3045 25.4227 37.3045 27.9999C37.3045 30.5773 35.2151 32.6666 32.6377 32.6666C30.0605 32.6666 27.9712 30.5773 27.9712 27.9999Z" fill="#1ABCFE"/>
<path id="Vector_3" d="M18.6372 37.3334C18.6372 34.7562 20.7265 32.6669 23.3039 32.6669H27.9707V37.3334C27.9707 39.9108 25.8813 42.0001 23.3039 42.0001C20.7265 42.0001 18.6372 39.9108 18.6372 37.3334Z" fill="#0ACF83"/>
<path id="Vector_4" d="M27.9712 14V23.3333H32.6377C35.2151 23.3333 37.3045 21.244 37.3045 18.6667C37.3045 16.0893 35.2151 14 32.6377 14H27.9712Z" fill="#FF7262"/>
<path id="Vector_5" d="M18.6372 18.6667C18.6372 21.244 20.7265 23.3333 23.3039 23.3333H27.9707V14H23.3039C20.7265 14 18.6372 16.0893 18.6372 18.6667Z" fill="#F24E1E"/>
<path id="Vector_6" d="M18.6372 27.9999C18.6372 30.5773 20.7265 32.6666 23.3039 32.6666H27.9707V23.3332H23.3039C20.7265 23.3332 18.6372 25.4227 18.6372 27.9999Z" fill="#A259FF"/>
</g>
</svg>
