<svg width="22" height="22" viewBox="0 0 22 22" fill="none" xmlns="http://www.w3.org/2000/svg">
<g id="Group">
<path id="Vector" d="M11 13C12.1046 13 13 12.1046 13 11C13 9.89543 12.1046 9 11 9C9.89543 9 9 9.89543 9 11C9 12.1046 9.89543 13 11 13Z" stroke="white" stroke-width="1.5"/>
<path id="Vector_2" d="M11 9C16 9 15.6 21 8 21" stroke="white" stroke-width="1.5" stroke-linecap="round"/>
<path id="Vector_3" d="M11.3121 13C6.31206 13 6.71206 1 14.3121 1" stroke="white" stroke-width="1.5" stroke-linecap="round"/>
<path id="Vector_4" d="M9 11.3121C9 6.31206 21 6.71206 21 14.3121" stroke="white" stroke-width="1.5" stroke-linecap="round"/>
<path id="Vector_5" d="M13 11C13 16 1 15.6 1 8" stroke="white" stroke-width="1.5" stroke-linecap="round"/>
</g>
</svg>
