<svg width="24" height="25" viewBox="0 0 24 25" fill="none" xmlns="http://www.w3.org/2000/svg">
<g id="solar:golf-bold-duotone">
<path id="Vector" opacity="0.5" d="M12 22.5C17.5228 22.5 22 20.933 22 19C22 17.067 17.5228 15.5 12 15.5C6.47715 15.5 2 17.067 2 19C2 20.933 6.47715 22.5 12 22.5Z" fill="white"/>
<path id="Vector_2" d="M12 1.75C12.1989 1.75 12.3897 1.82902 12.5303 1.96967C12.671 2.11032 12.75 2.30109 12.75 2.5V3.536L17.758 6.04L17.812 6.067C18.546 6.434 19.172 6.747 19.608 7.051C20.05 7.36 20.514 7.808 20.514 8.5C20.514 9.193 20.05 9.64 19.608 9.949C19.172 10.253 18.546 10.566 17.812 10.933L12.75 13.463V18.5C12.75 18.6989 12.671 18.8897 12.5303 19.0303C12.3897 19.171 12.1989 19.25 12 19.25C11.8011 19.25 11.6103 19.171 11.4697 19.0303C11.329 18.8897 11.25 18.6989 11.25 18.5V2.5C11.25 2.30109 11.329 2.11032 11.4697 1.96967C11.6103 1.82902 11.8011 1.75 12 1.75Z" fill="white"/>
</g>
</svg>
