<svg width="24" height="25" viewBox="0 0 24 25" fill="none" xmlns="http://www.w3.org/2000/svg">
<g id="solar:lightbulb-bolt-bold-duotone">
<path id="Vector" opacity="0.5" d="M4.00004 10.5241C4.00004 6.2861 7.35804 2.8501 11.5 2.8501C15.642 2.8501 19 6.2861 19 10.5241C19.0037 11.5988 18.7833 12.6625 18.3531 13.6473C17.9228 14.6322 17.2921 15.5166 16.501 16.2441C15.991 16.7111 15.612 17.0581 15.344 17.3101C15.2083 17.4376 15.0749 17.5676 14.944 17.7001L14.919 17.7271L14.911 17.7371C14.674 18.0351 14.623 18.1121 14.593 18.1821C14.563 18.2521 14.54 18.3421 14.48 18.7221C14.457 18.8721 14.454 19.1281 14.454 19.8271V19.8571C14.454 20.2661 14.454 20.6191 14.429 20.9081C14.402 21.2141 14.342 21.5181 14.181 21.8031C14.0028 22.1202 13.7441 22.3848 13.431 22.5701C13.153 22.7351 12.856 22.7961 12.557 22.8241C12.274 22.8501 11.929 22.8501 11.529 22.8501H11.471C11.071 22.8501 10.726 22.8501 10.443 22.8241C10.143 22.7961 9.84704 22.7341 9.56804 22.5701C9.25535 22.3846 8.99702 22.1201 8.81904 21.8031C8.65904 21.5181 8.59904 21.2151 8.57104 20.9081C8.54504 20.6181 8.54504 20.2661 8.54504 19.8571V19.8271C8.54504 19.1281 8.54304 18.8721 8.51904 18.7221C8.45904 18.3421 8.43804 18.2521 8.40704 18.1821C8.37704 18.1121 8.32604 18.0351 8.08904 17.7361L8.08104 17.7261C7.94217 17.5843 7.80047 17.4453 7.65604 17.3091C7.38804 17.0591 7.00904 16.7111 6.49904 16.2431C5.70815 15.5157 5.07747 14.6314 4.64721 13.6468C4.21695 12.6621 3.99655 11.5986 4.00004 10.5241Z" fill="white"/>
<path id="Vector_2" d="M13.0846 20.5249H9.91458C9.91758 20.6219 9.92158 20.7059 9.92858 20.7829C9.94658 20.9929 9.97858 21.0679 9.99958 21.1059C10.059 21.2117 10.1452 21.3 10.2496 21.3619C10.2866 21.3829 10.3606 21.4159 10.5656 21.4339C10.7796 21.4539 11.0616 21.4549 11.4996 21.4549C11.9366 21.4549 12.2196 21.4549 12.4336 21.4349C12.6376 21.4149 12.7126 21.3829 12.7496 21.3619C12.854 21.3 12.9402 21.2117 12.9996 21.1059C13.0196 21.0679 13.0516 20.9919 13.0696 20.7829C13.0766 20.7069 13.0816 20.6219 13.0846 20.5249ZM12.6096 9.0269C12.9166 9.2509 12.9876 9.6869 12.7686 9.9999L11.5906 11.6879H12.9926C13.1187 11.6885 13.2422 11.7242 13.3492 11.7909C13.4562 11.8577 13.5426 11.9529 13.5986 12.0659C13.6561 12.1802 13.6817 12.3078 13.6727 12.4354C13.6637 12.563 13.6205 12.6858 13.5476 12.7909L11.5996 15.5799C11.5488 15.6542 11.4835 15.7175 11.4078 15.766C11.332 15.8146 11.2473 15.8475 11.1586 15.8627C11.0699 15.8779 10.979 15.8751 10.8914 15.8545C10.8038 15.834 10.7212 15.796 10.6486 15.7429C10.5008 15.6332 10.4016 15.4703 10.3719 15.2886C10.3422 15.107 10.3844 14.9209 10.4896 14.7699L11.6676 13.0819H10.2656C10.1393 13.0812 10.0158 13.0454 9.90877 12.9784C9.80174 12.9115 9.71546 12.8161 9.65958 12.7029C9.60227 12.5888 9.57677 12.4613 9.58574 12.3339C9.59472 12.2065 9.63784 12.0839 9.71058 11.9789L11.6586 9.1889C11.7094 9.11464 11.7746 9.05135 11.8504 9.00278C11.9262 8.95421 12.0109 8.92135 12.0996 8.90614C12.1883 8.89094 12.2791 8.89371 12.3667 8.91428C12.4543 8.93485 12.5369 8.97281 12.6096 9.0259" fill="white"/>
</g>
</svg>
