<svg width="1280" height="320" viewBox="0 0 1280 320" fill="none" xmlns="http://www.w3.org/2000/svg">
<path d="M761.44 157V143H766.18C767.287 143 768.193 143.187 768.9 143.56C769.607 143.933 770.127 144.433 770.46 145.06C770.807 145.673 770.98 146.373 770.98 147.16C770.98 147.907 770.807 148.6 770.46 149.24C770.127 149.867 769.6 150.373 768.88 150.76C768.16 151.133 767.24 151.32 766.12 151.32H763.44V157H761.44ZM768.8 157L765.78 150.78H768L771.12 157H768.8ZM763.44 149.8H766.06C767.047 149.8 767.767 149.56 768.22 149.08C768.687 148.587 768.92 147.96 768.92 147.2C768.92 146.427 768.693 145.813 768.24 145.36C767.787 144.907 767.053 144.68 766.04 144.68H763.44V149.8ZM777.444 157.24C776.471 157.24 775.611 157.027 774.864 156.6C774.117 156.16 773.531 155.553 773.104 154.78C772.691 153.993 772.484 153.08 772.484 152.04C772.484 150.987 772.691 150.067 773.104 149.28C773.517 148.493 774.097 147.88 774.844 147.44C775.604 147 776.477 146.78 777.464 146.78C778.451 146.78 779.297 147 780.004 147.44C780.724 147.867 781.271 148.44 781.644 149.16C782.031 149.88 782.224 150.673 782.224 151.54C782.224 151.673 782.224 151.82 782.224 151.98C782.224 152.127 782.217 152.293 782.204 152.48H773.944V151.06H780.244C780.204 150.247 779.924 149.607 779.404 149.14C778.884 148.673 778.231 148.44 777.444 148.44C776.911 148.44 776.411 148.56 775.944 148.8C775.491 149.04 775.124 149.393 774.844 149.86C774.577 150.327 774.444 150.913 774.444 151.62V152.2C774.444 152.933 774.577 153.553 774.844 154.06C775.124 154.553 775.491 154.933 775.944 155.2C776.397 155.453 776.891 155.58 777.424 155.58C778.064 155.58 778.591 155.44 779.004 155.16C779.431 154.867 779.744 154.48 779.944 154H781.944C781.771 154.613 781.477 155.167 781.064 155.66C780.651 156.14 780.137 156.527 779.524 156.82C778.924 157.1 778.231 157.24 777.444 157.24ZM784.446 157V147.02H786.226L786.386 148.42C786.706 147.913 787.133 147.513 787.666 147.22C788.199 146.927 788.799 146.78 789.466 146.78C789.973 146.78 790.433 146.847 790.846 146.98C791.273 147.113 791.646 147.32 791.966 147.6C792.286 147.88 792.553 148.233 792.766 148.66C793.113 148.06 793.593 147.6 794.206 147.28C794.819 146.947 795.473 146.78 796.166 146.78C796.979 146.78 797.679 146.947 798.266 147.28C798.853 147.6 799.299 148.087 799.606 148.74C799.926 149.393 800.086 150.207 800.086 151.18V157H798.106V151.38C798.106 150.433 797.913 149.713 797.526 149.22C797.139 148.727 796.579 148.48 795.846 148.48C795.353 148.48 794.906 148.613 794.506 148.88C794.119 149.133 793.813 149.507 793.586 150C793.373 150.48 793.266 151.073 793.266 151.78V157H791.266V151.38C791.266 150.433 791.073 149.713 790.686 149.22C790.313 148.727 789.753 148.48 789.006 148.48C788.526 148.48 788.086 148.613 787.686 148.88C787.299 149.133 786.993 149.507 786.766 150C786.553 150.48 786.446 151.073 786.446 151.78V157H784.446ZM807.23 157.24C806.283 157.24 805.43 157.027 804.67 156.6C803.923 156.16 803.33 155.547 802.89 154.76C802.463 153.973 802.25 153.06 802.25 152.02C802.25 150.967 802.47 150.047 802.91 149.26C803.35 148.473 803.95 147.867 804.71 147.44C805.47 147 806.316 146.78 807.25 146.78C808.21 146.78 809.063 147 809.81 147.44C810.57 147.867 811.163 148.473 811.59 149.26C812.03 150.033 812.25 150.953 812.25 152.02C812.25 153.06 812.03 153.973 811.59 154.76C811.15 155.547 810.55 156.16 809.79 156.6C809.03 157.027 808.176 157.24 807.23 157.24ZM807.23 155.52C807.763 155.52 808.25 155.393 808.69 155.14C809.143 154.873 809.51 154.48 809.79 153.96C810.07 153.427 810.21 152.773 810.21 152C810.21 151.227 810.07 150.58 809.79 150.06C809.523 149.54 809.163 149.153 808.71 148.9C808.27 148.633 807.783 148.5 807.25 148.5C806.743 148.5 806.256 148.633 805.79 148.9C805.336 149.153 804.97 149.54 804.69 150.06C804.423 150.58 804.29 151.233 804.29 152.02C804.29 152.78 804.423 153.427 804.69 153.96C804.97 154.48 805.33 154.873 805.77 155.14C806.223 155.393 806.71 155.52 807.23 155.52ZM818.312 157C817.672 157 817.119 156.9 816.652 156.7C816.185 156.5 815.825 156.167 815.572 155.7C815.319 155.233 815.192 154.6 815.192 153.8V148.7H813.472V147.02H815.192L815.452 144.52H817.192V147.02H820.032V148.7H817.192V153.82C817.192 154.393 817.312 154.787 817.552 155C817.792 155.2 818.205 155.3 818.792 155.3H819.932V157H818.312ZM826.526 157.24C825.553 157.24 824.693 157.027 823.946 156.6C823.199 156.16 822.613 155.553 822.186 154.78C821.773 153.993 821.566 153.08 821.566 152.04C821.566 150.987 821.773 150.067 822.186 149.28C822.599 148.493 823.179 147.88 823.926 147.44C824.686 147 825.559 146.78 826.546 146.78C827.533 146.78 828.379 147 829.086 147.44C829.806 147.867 830.353 148.44 830.726 149.16C831.113 149.88 831.306 150.673 831.306 151.54C831.306 151.673 831.306 151.82 831.306 151.98C831.306 152.127 831.299 152.293 831.286 152.48H823.026V151.06H829.326C829.286 150.247 829.006 149.607 828.486 149.14C827.966 148.673 827.313 148.44 826.526 148.44C825.993 148.44 825.493 148.56 825.026 148.8C824.573 149.04 824.206 149.393 823.926 149.86C823.659 150.327 823.526 150.913 823.526 151.62V152.2C823.526 152.933 823.659 153.553 823.926 154.06C824.206 154.553 824.573 154.933 825.026 155.2C825.479 155.453 825.973 155.58 826.506 155.58C827.146 155.58 827.673 155.44 828.086 155.16C828.513 154.867 828.826 154.48 829.026 154H831.026C830.853 154.613 830.559 155.167 830.146 155.66C829.733 156.14 829.219 156.527 828.606 156.82C828.006 157.1 827.313 157.24 826.526 157.24ZM843.905 157.24C842.918 157.24 842.025 157.047 841.225 156.66C840.438 156.26 839.805 155.66 839.325 154.86C838.845 154.047 838.605 153.013 838.605 151.76V143H840.605V151.78C840.605 152.62 840.745 153.313 841.025 153.86C841.305 154.393 841.692 154.793 842.185 155.06C842.692 155.313 843.278 155.44 843.945 155.44C844.625 155.44 845.212 155.313 845.705 155.06C846.198 154.793 846.578 154.393 846.845 153.86C847.125 153.313 847.265 152.62 847.265 151.78V143H849.265V151.76C849.265 153.013 849.025 154.047 848.545 154.86C848.065 155.66 847.418 156.26 846.605 156.66C845.792 157.047 844.892 157.24 843.905 157.24ZM855.846 157.24C855.019 157.24 854.279 157.1 853.626 156.82C852.986 156.54 852.473 156.147 852.086 155.64C851.713 155.133 851.486 154.547 851.406 153.88H853.426C853.506 154.187 853.646 154.473 853.846 154.74C854.046 155.007 854.313 155.22 854.646 155.38C854.979 155.54 855.379 155.62 855.846 155.62C856.286 155.62 856.646 155.56 856.926 155.44C857.206 155.307 857.413 155.133 857.546 154.92C857.679 154.707 857.746 154.473 857.746 154.22C857.746 153.86 857.653 153.587 857.466 153.4C857.293 153.213 857.026 153.067 856.666 152.96C856.319 152.84 855.899 152.727 855.406 152.62C854.979 152.54 854.553 152.433 854.126 152.3C853.699 152.167 853.313 151.993 852.966 151.78C852.619 151.567 852.339 151.3 852.126 150.98C851.913 150.66 851.806 150.267 851.806 149.8C851.806 149.213 851.959 148.693 852.266 148.24C852.573 147.787 853.006 147.433 853.566 147.18C854.126 146.913 854.793 146.78 855.566 146.78C856.673 146.78 857.566 147.047 858.246 147.58C858.939 148.1 859.339 148.853 859.446 149.84H857.526C857.459 149.387 857.253 149.033 856.906 148.78C856.573 148.527 856.126 148.4 855.566 148.4C854.993 148.4 854.553 148.513 854.246 148.74C853.953 148.967 853.806 149.267 853.806 149.64C853.806 149.88 853.893 150.093 854.066 150.28C854.253 150.453 854.513 150.607 854.846 150.74C855.193 150.86 855.599 150.967 856.066 151.06C856.746 151.207 857.359 151.38 857.906 151.58C858.466 151.767 858.919 152.053 859.266 152.44C859.613 152.813 859.786 153.36 859.786 154.08C859.799 154.707 859.639 155.26 859.306 155.74C858.986 156.207 858.533 156.573 857.946 156.84C857.359 157.107 856.659 157.24 855.846 157.24ZM865.481 157.24C864.655 157.24 863.968 157.1 863.421 156.82C862.875 156.54 862.468 156.167 862.201 155.7C861.935 155.233 861.801 154.727 861.801 154.18C861.801 153.527 861.968 152.967 862.301 152.5C862.648 152.033 863.141 151.673 863.781 151.42C864.421 151.167 865.195 151.04 866.101 151.04H868.721C868.721 150.453 868.628 149.973 868.441 149.6C868.268 149.213 868.008 148.927 867.661 148.74C867.328 148.54 866.908 148.44 866.401 148.44C865.801 148.44 865.281 148.587 864.841 148.88C864.401 149.173 864.128 149.607 864.021 150.18H862.021C862.101 149.46 862.341 148.847 862.741 148.34C863.155 147.833 863.681 147.447 864.321 147.18C864.975 146.913 865.668 146.78 866.401 146.78C867.335 146.78 868.121 146.947 868.761 147.28C869.401 147.613 869.888 148.087 870.221 148.7C870.555 149.3 870.721 150.013 870.721 150.84V157H868.981L868.821 155.3C868.688 155.567 868.515 155.82 868.301 156.06C868.101 156.3 867.861 156.507 867.581 156.68C867.315 156.853 867.001 156.987 866.641 157.08C866.295 157.187 865.908 157.24 865.481 157.24ZM865.861 155.62C866.288 155.62 866.675 155.533 867.021 155.36C867.368 155.187 867.661 154.953 867.901 154.66C868.155 154.353 868.341 154.013 868.461 153.64C868.595 153.267 868.668 152.88 868.681 152.48V152.44H866.301C865.728 152.44 865.261 152.513 864.901 152.66C864.541 152.793 864.281 152.98 864.121 153.22C863.975 153.46 863.901 153.74 863.901 154.06C863.901 154.38 863.975 154.66 864.121 154.9C864.281 155.127 864.508 155.307 864.801 155.44C865.095 155.56 865.448 155.62 865.861 155.62ZM878.755 157.24C878.221 157.24 877.728 157.167 877.275 157.02C876.835 156.873 876.441 156.667 876.095 156.4C875.761 156.133 875.481 155.82 875.255 155.46L875.055 157H873.255V142.6H875.255V148.58C875.575 148.1 876.021 147.68 876.595 147.32C877.168 146.96 877.895 146.78 878.775 146.78C879.735 146.78 880.581 147.007 881.315 147.46C882.048 147.913 882.615 148.54 883.015 149.34C883.428 150.127 883.635 151.02 883.635 152.02C883.635 153.02 883.428 153.913 883.015 154.7C882.615 155.487 882.048 156.107 881.315 156.56C880.581 157.013 879.728 157.24 878.755 157.24ZM878.435 155.5C879.061 155.5 879.615 155.353 880.095 155.06C880.575 154.767 880.948 154.36 881.215 153.84C881.481 153.32 881.615 152.713 881.615 152.02C881.615 151.327 881.481 150.72 881.215 150.2C880.948 149.667 880.575 149.253 880.095 148.96C879.615 148.667 879.061 148.52 878.435 148.52C877.808 148.52 877.255 148.667 876.775 148.96C876.295 149.253 875.921 149.66 875.655 150.18C875.388 150.7 875.255 151.313 875.255 152.02C875.255 152.713 875.388 153.32 875.655 153.84C875.921 154.36 876.295 154.767 876.775 155.06C877.255 155.353 877.808 155.5 878.435 155.5ZM886.109 157V147.02H888.109V157H886.109ZM887.109 145.08C886.736 145.08 886.423 144.96 886.169 144.72C885.916 144.48 885.789 144.173 885.789 143.8C885.789 143.44 885.916 143.147 886.169 142.92C886.423 142.68 886.736 142.56 887.109 142.56C887.483 142.56 887.796 142.68 888.049 142.92C888.303 143.147 888.429 143.44 888.429 143.8C888.429 144.173 888.303 144.48 888.049 144.72C887.796 144.96 887.483 145.08 887.109 145.08ZM890.969 157V142.6H892.969V157H890.969ZM895.836 157V147.02H897.836V157H895.836ZM896.836 145.08C896.463 145.08 896.149 144.96 895.896 144.72C895.643 144.48 895.516 144.173 895.516 143.8C895.516 143.44 895.643 143.147 895.896 142.92C896.149 142.68 896.463 142.56 896.836 142.56C897.209 142.56 897.523 142.68 897.776 142.92C898.029 143.147 898.156 143.44 898.156 143.8C898.156 144.173 898.029 144.48 897.776 144.72C897.523 144.96 897.209 145.08 896.836 145.08ZM904.816 157C904.176 157 903.623 156.9 903.156 156.7C902.689 156.5 902.329 156.167 902.076 155.7C901.823 155.233 901.696 154.6 901.696 153.8V148.7H899.976V147.02H901.696L901.956 144.52H903.696V147.02H906.536V148.7H903.696V153.82C903.696 154.393 903.816 154.787 904.056 155C904.296 155.2 904.709 155.3 905.296 155.3H906.436V157H904.816ZM909.863 161.4L912.343 155.88H911.743L907.763 147.02H909.923L913.103 154.26L916.283 147.02H918.383L911.963 161.4H909.863Z" fill="white"/>
<path d="M766.94 98V84H775.78V85.64H768.94V90.12H775.18V91.72H768.94V96.36H775.78V98H766.94ZM777.286 98L780.786 93L777.286 88.02H779.446L782.106 91.92L784.786 88.02H786.946L783.446 93L786.946 98H784.786L782.106 94.1L779.446 98H777.286ZM788.657 102.4V88.02H790.457L790.657 89.58C790.87 89.2733 791.137 88.98 791.457 88.7C791.777 88.42 792.157 88.2 792.597 88.04C793.05 87.8667 793.577 87.78 794.177 87.78C795.137 87.78 795.977 88.0133 796.697 88.48C797.43 88.9333 798.004 89.5533 798.417 90.34C798.83 91.1267 799.037 92.0267 799.037 93.04C799.037 94.04 798.83 94.9333 798.417 95.72C798.004 96.5067 797.43 97.1267 796.697 97.58C795.964 98.02 795.117 98.24 794.157 98.24C793.37 98.24 792.677 98.0867 792.077 97.78C791.477 97.46 791.004 97.02 790.657 96.46V102.4H788.657ZM793.837 96.5C794.464 96.5 795.017 96.3533 795.497 96.06C795.977 95.7667 796.35 95.36 796.617 94.84C796.884 94.32 797.017 93.7133 797.017 93.02C797.017 92.3267 796.884 91.72 796.617 91.2C796.35 90.6667 795.977 90.2533 795.497 89.96C795.017 89.6667 794.464 89.52 793.837 89.52C793.21 89.52 792.657 89.6667 792.177 89.96C791.697 90.2533 791.324 90.66 791.057 91.18C790.79 91.7 790.657 92.3067 790.657 93C790.657 93.7067 790.79 94.32 791.057 94.84C791.324 95.36 791.697 95.7667 792.177 96.06C792.657 96.3533 793.21 96.5 793.837 96.5ZM805.952 98.24C804.978 98.24 804.118 98.0267 803.372 97.6C802.625 97.16 802.038 96.5533 801.612 95.78C801.198 94.9933 800.992 94.08 800.992 93.04C800.992 91.9867 801.198 91.0667 801.612 90.28C802.025 89.4933 802.605 88.88 803.352 88.44C804.112 88 804.985 87.78 805.972 87.78C806.958 87.78 807.805 88 808.512 88.44C809.232 88.8667 809.778 89.44 810.152 90.16C810.538 90.88 810.732 91.6733 810.732 92.54C810.732 92.6733 810.732 92.82 810.732 92.98C810.732 93.1267 810.725 93.2933 810.712 93.48H802.452V92.06H808.752C808.712 91.2467 808.432 90.6067 807.912 90.14C807.392 89.6733 806.738 89.44 805.952 89.44C805.418 89.44 804.918 89.56 804.452 89.8C803.998 90.04 803.632 90.3933 803.352 90.86C803.085 91.3267 802.952 91.9133 802.952 92.62V93.2C802.952 93.9333 803.085 94.5533 803.352 95.06C803.632 95.5533 803.998 95.9333 804.452 96.2C804.905 96.4533 805.398 96.58 805.932 96.58C806.572 96.58 807.098 96.44 807.512 96.16C807.938 95.8667 808.252 95.48 808.452 95H810.452C810.278 95.6133 809.985 96.1667 809.572 96.66C809.158 97.14 808.645 97.5267 808.032 97.82C807.432 98.1 806.738 98.24 805.952 98.24ZM812.954 98V88.02H814.754L814.934 89.92C815.147 89.4667 815.427 89.0867 815.774 88.78C816.134 88.46 816.554 88.2133 817.034 88.04C817.514 87.8667 818.06 87.78 818.674 87.78V89.88H818.054C817.627 89.88 817.22 89.9333 816.834 90.04C816.46 90.1467 816.134 90.32 815.854 90.56C815.574 90.8 815.354 91.1267 815.194 91.54C815.034 91.9533 814.954 92.4733 814.954 93.1V98H812.954ZM824.632 98C823.992 98 823.439 97.9 822.972 97.7C822.506 97.5 822.146 97.1667 821.892 96.7C821.639 96.2333 821.512 95.6 821.512 94.8V89.7H819.792V88.02H821.512L821.772 85.52H823.512V88.02H826.352V89.7H823.512V94.82C823.512 95.3933 823.632 95.7867 823.872 96C824.112 96.2 824.526 96.3 825.112 96.3H826.252V98H824.632ZM838.917 98.24C837.93 98.24 837.037 98.0467 836.237 97.66C835.45 97.26 834.817 96.66 834.337 95.86C833.857 95.0467 833.617 94.0133 833.617 92.76V84H835.617V92.78C835.617 93.62 835.757 94.3133 836.037 94.86C836.317 95.3933 836.704 95.7933 837.197 96.06C837.704 96.3133 838.29 96.44 838.957 96.44C839.637 96.44 840.224 96.3133 840.717 96.06C841.21 95.7933 841.59 95.3933 841.857 94.86C842.137 94.3133 842.277 93.62 842.277 92.78V84H844.277V92.76C844.277 94.0133 844.037 95.0467 843.557 95.86C843.077 96.66 842.43 97.26 841.617 97.66C840.804 98.0467 839.904 98.24 838.917 98.24ZM850.858 98.24C850.031 98.24 849.291 98.1 848.638 97.82C847.998 97.54 847.484 97.1467 847.098 96.64C846.724 96.1333 846.498 95.5467 846.418 94.88H848.438C848.518 95.1867 848.658 95.4733 848.858 95.74C849.058 96.0067 849.324 96.22 849.658 96.38C849.991 96.54 850.391 96.62 850.858 96.62C851.298 96.62 851.658 96.56 851.938 96.44C852.218 96.3067 852.424 96.1333 852.558 95.92C852.691 95.7067 852.758 95.4733 852.758 95.22C852.758 94.86 852.664 94.5867 852.478 94.4C852.304 94.2133 852.038 94.0667 851.678 93.96C851.331 93.84 850.911 93.7267 850.418 93.62C849.991 93.54 849.564 93.4333 849.138 93.3C848.711 93.1667 848.324 92.9933 847.978 92.78C847.631 92.5667 847.351 92.3 847.138 91.98C846.924 91.66 846.818 91.2667 846.818 90.8C846.818 90.2133 846.971 89.6933 847.278 89.24C847.584 88.7867 848.018 88.4333 848.578 88.18C849.138 87.9133 849.804 87.78 850.578 87.78C851.684 87.78 852.578 88.0467 853.258 88.58C853.951 89.1 854.351 89.8533 854.458 90.84H852.538C852.471 90.3867 852.264 90.0333 851.918 89.78C851.584 89.5267 851.138 89.4 850.578 89.4C850.004 89.4 849.564 89.5133 849.258 89.74C848.964 89.9667 848.818 90.2667 848.818 90.64C848.818 90.88 848.904 91.0933 849.078 91.28C849.264 91.4533 849.524 91.6067 849.858 91.74C850.204 91.86 850.611 91.9667 851.078 92.06C851.758 92.2067 852.371 92.38 852.918 92.58C853.478 92.7667 853.931 93.0533 854.278 93.44C854.624 93.8133 854.798 94.36 854.798 95.08C854.811 95.7067 854.651 96.26 854.318 96.74C853.998 97.2067 853.544 97.5733 852.958 97.84C852.371 98.1067 851.671 98.24 850.858 98.24ZM860.493 98.24C859.666 98.24 858.98 98.1 858.433 97.82C857.886 97.54 857.48 97.1667 857.213 96.7C856.946 96.2333 856.813 95.7267 856.813 95.18C856.813 94.5267 856.98 93.9667 857.313 93.5C857.66 93.0333 858.153 92.6733 858.793 92.42C859.433 92.1667 860.206 92.04 861.113 92.04H863.733C863.733 91.4533 863.64 90.9733 863.453 90.6C863.28 90.2133 863.02 89.9267 862.673 89.74C862.34 89.54 861.92 89.44 861.413 89.44C860.813 89.44 860.293 89.5867 859.853 89.88C859.413 90.1733 859.14 90.6067 859.033 91.18H857.033C857.113 90.46 857.353 89.8467 857.753 89.34C858.166 88.8333 858.693 88.4467 859.333 88.18C859.986 87.9133 860.68 87.78 861.413 87.78C862.346 87.78 863.133 87.9467 863.773 88.28C864.413 88.6133 864.9 89.0867 865.233 89.7C865.566 90.3 865.733 91.0133 865.733 91.84V98H863.993L863.833 96.3C863.7 96.5667 863.526 96.82 863.313 97.06C863.113 97.3 862.873 97.5067 862.593 97.68C862.326 97.8533 862.013 97.9867 861.653 98.08C861.306 98.1867 860.92 98.24 860.493 98.24ZM860.873 96.62C861.3 96.62 861.686 96.5333 862.033 96.36C862.38 96.1867 862.673 95.9533 862.913 95.66C863.166 95.3533 863.353 95.0133 863.473 94.64C863.606 94.2667 863.68 93.88 863.693 93.48V93.44H861.313C860.74 93.44 860.273 93.5133 859.913 93.66C859.553 93.7933 859.293 93.98 859.133 94.22C858.986 94.46 858.913 94.74 858.913 95.06C858.913 95.38 858.986 95.66 859.133 95.9C859.293 96.1267 859.52 96.3067 859.813 96.44C860.106 96.56 860.46 96.62 860.873 96.62ZM873.766 98.24C873.233 98.24 872.74 98.1667 872.286 98.02C871.846 97.8733 871.453 97.6667 871.106 97.4C870.773 97.1333 870.493 96.82 870.266 96.46L870.066 98H868.266V83.6H870.266V89.58C870.586 89.1 871.033 88.68 871.606 88.32C872.18 87.96 872.906 87.78 873.786 87.78C874.746 87.78 875.593 88.0067 876.326 88.46C877.06 88.9133 877.626 89.54 878.026 90.34C878.44 91.1267 878.646 92.02 878.646 93.02C878.646 94.02 878.44 94.9133 878.026 95.7C877.626 96.4867 877.06 97.1067 876.326 97.56C875.593 98.0133 874.74 98.24 873.766 98.24ZM873.446 96.5C874.073 96.5 874.626 96.3533 875.106 96.06C875.586 95.7667 875.96 95.36 876.226 94.84C876.493 94.32 876.626 93.7133 876.626 93.02C876.626 92.3267 876.493 91.72 876.226 91.2C875.96 90.6667 875.586 90.2533 875.106 89.96C874.626 89.6667 874.073 89.52 873.446 89.52C872.82 89.52 872.266 89.6667 871.786 89.96C871.306 90.2533 870.933 90.66 870.666 91.18C870.4 91.7 870.266 92.3133 870.266 93.02C870.266 93.7133 870.4 94.32 870.666 94.84C870.933 95.36 871.306 95.7667 871.786 96.06C872.266 96.3533 872.82 96.5 873.446 96.5ZM881.121 98V88.02H883.121V98H881.121ZM882.121 86.08C881.748 86.08 881.434 85.96 881.181 85.72C880.928 85.48 880.801 85.1733 880.801 84.8C880.801 84.44 880.928 84.1467 881.181 83.92C881.434 83.68 881.748 83.56 882.121 83.56C882.494 83.56 882.808 83.68 883.061 83.92C883.314 84.1467 883.441 84.44 883.441 84.8C883.441 85.1733 883.314 85.48 883.061 85.72C882.808 85.96 882.494 86.08 882.121 86.08ZM885.981 98V83.6H887.981V98H885.981ZM890.848 98V88.02H892.848V98H890.848ZM891.848 86.08C891.474 86.08 891.161 85.96 890.908 85.72C890.654 85.48 890.528 85.1733 890.528 84.8C890.528 84.44 890.654 84.1467 890.908 83.92C891.161 83.68 891.474 83.56 891.848 83.56C892.221 83.56 892.534 83.68 892.788 83.92C893.041 84.1467 893.168 84.44 893.168 84.8C893.168 85.1733 893.041 85.48 892.788 85.72C892.534 85.96 892.221 86.08 891.848 86.08ZM899.828 98C899.188 98 898.634 97.9 898.168 97.7C897.701 97.5 897.341 97.1667 897.088 96.7C896.834 96.2333 896.708 95.6 896.708 94.8V89.7H894.988V88.02H896.708L896.968 85.52H898.708V88.02H901.548V89.7H898.708V94.82C898.708 95.3933 898.828 95.7867 899.068 96C899.308 96.2 899.721 96.3 900.308 96.3H901.448V98H899.828ZM904.875 102.4L907.355 96.88H906.755L902.775 88.02H904.935L908.115 95.26L911.295 88.02H913.395L906.975 102.4H904.875Z" fill="white"/>
<rect x="244" y="207.875" width="151" height="42" rx="12" fill="#333333" fill-opacity="0.5"/>
<path d="M270.62 236.115C269.633 236.115 268.74 235.922 267.94 235.535C267.153 235.135 266.52 234.535 266.04 233.735C265.56 232.922 265.32 231.888 265.32 230.635V221.875H267.32V230.655C267.32 231.495 267.46 232.188 267.74 232.735C268.02 233.268 268.407 233.668 268.9 233.935C269.407 234.188 269.993 234.315 270.66 234.315C271.34 234.315 271.927 234.188 272.42 233.935C272.913 233.668 273.293 233.268 273.56 232.735C273.84 232.188 273.98 231.495 273.98 230.655V221.875H275.98V230.635C275.98 231.888 275.74 232.922 275.26 233.735C274.78 234.535 274.133 235.135 273.32 235.535C272.507 235.922 271.607 236.115 270.62 236.115ZM278.661 235.875V225.895H280.441L280.581 227.635C280.901 227.022 281.354 226.542 281.941 226.195C282.527 225.835 283.207 225.655 283.981 225.655C284.781 225.655 285.467 225.822 286.041 226.155C286.614 226.475 287.054 226.962 287.361 227.615C287.681 228.255 287.841 229.068 287.841 230.055V235.875H285.841V230.255C285.841 229.308 285.634 228.588 285.221 228.095C284.821 227.602 284.227 227.355 283.441 227.355C282.907 227.355 282.427 227.488 282.001 227.755C281.587 228.008 281.261 228.375 281.021 228.855C280.781 229.335 280.661 229.928 280.661 230.635V235.875H278.661ZM294.88 236.115C293.92 236.115 293.066 235.888 292.32 235.435C291.586 234.982 291.013 234.362 290.6 233.575C290.2 232.775 290 231.875 290 230.875C290 229.862 290.2 228.962 290.6 228.175C291.013 227.388 291.593 226.775 292.34 226.335C293.086 225.882 293.94 225.655 294.9 225.655C295.686 225.655 296.38 225.815 296.98 226.135C297.593 226.442 298.066 226.875 298.4 227.435V221.475H300.4V235.875H298.6L298.4 234.315C298.186 234.622 297.92 234.915 297.6 235.195C297.28 235.462 296.893 235.682 296.44 235.855C295.986 236.028 295.466 236.115 294.88 236.115ZM295.2 234.375C295.826 234.375 296.38 234.228 296.86 233.935C297.34 233.642 297.713 233.235 297.98 232.715C298.246 232.182 298.38 231.568 298.38 230.875C298.38 230.182 298.246 229.575 297.98 229.055C297.713 228.535 297.34 228.128 296.86 227.835C296.38 227.542 295.826 227.395 295.2 227.395C294.586 227.395 294.04 227.542 293.56 227.835C293.08 228.128 292.706 228.535 292.44 229.055C292.173 229.575 292.04 230.182 292.04 230.875C292.04 231.568 292.173 232.182 292.44 232.715C292.706 233.235 293.08 233.642 293.56 233.935C294.04 234.228 294.586 234.375 295.2 234.375ZM307.694 236.115C306.721 236.115 305.861 235.902 305.114 235.475C304.367 235.035 303.781 234.428 303.354 233.655C302.941 232.868 302.734 231.955 302.734 230.915C302.734 229.862 302.941 228.942 303.354 228.155C303.767 227.368 304.347 226.755 305.094 226.315C305.854 225.875 306.727 225.655 307.714 225.655C308.701 225.655 309.547 225.875 310.254 226.315C310.974 226.742 311.521 227.315 311.894 228.035C312.281 228.755 312.474 229.548 312.474 230.415C312.474 230.548 312.474 230.695 312.474 230.855C312.474 231.002 312.467 231.168 312.454 231.355H304.194V229.935H310.494C310.454 229.122 310.174 228.482 309.654 228.015C309.134 227.548 308.481 227.315 307.694 227.315C307.161 227.315 306.661 227.435 306.194 227.675C305.741 227.915 305.374 228.268 305.094 228.735C304.827 229.202 304.694 229.788 304.694 230.495V231.075C304.694 231.808 304.827 232.428 305.094 232.935C305.374 233.428 305.741 233.808 306.194 234.075C306.647 234.328 307.141 234.455 307.674 234.455C308.314 234.455 308.841 234.315 309.254 234.035C309.681 233.742 309.994 233.355 310.194 232.875H312.194C312.021 233.488 311.727 234.042 311.314 234.535C310.901 235.015 310.387 235.402 309.774 235.695C309.174 235.975 308.481 236.115 307.694 236.115ZM314.696 235.875V225.895H316.496L316.676 227.795C316.889 227.342 317.169 226.962 317.516 226.655C317.876 226.335 318.296 226.088 318.776 225.915C319.256 225.742 319.803 225.655 320.416 225.655V227.755H319.796C319.369 227.755 318.963 227.808 318.576 227.915C318.203 228.022 317.876 228.195 317.596 228.435C317.316 228.675 317.096 229.002 316.936 229.415C316.776 229.828 316.696 230.348 316.696 230.975V235.875H314.696ZM326.155 236.115C325.328 236.115 324.588 235.975 323.935 235.695C323.295 235.415 322.781 235.022 322.395 234.515C322.021 234.008 321.795 233.422 321.715 232.755H323.735C323.815 233.062 323.955 233.348 324.155 233.615C324.355 233.882 324.621 234.095 324.955 234.255C325.288 234.415 325.688 234.495 326.155 234.495C326.595 234.495 326.955 234.435 327.235 234.315C327.515 234.182 327.721 234.008 327.855 233.795C327.988 233.582 328.055 233.348 328.055 233.095C328.055 232.735 327.961 232.462 327.775 232.275C327.601 232.088 327.335 231.942 326.975 231.835C326.628 231.715 326.208 231.602 325.715 231.495C325.288 231.415 324.861 231.308 324.435 231.175C324.008 231.042 323.621 230.868 323.275 230.655C322.928 230.442 322.648 230.175 322.435 229.855C322.221 229.535 322.115 229.142 322.115 228.675C322.115 228.088 322.268 227.568 322.575 227.115C322.881 226.662 323.315 226.308 323.875 226.055C324.435 225.788 325.101 225.655 325.875 225.655C326.981 225.655 327.875 225.922 328.555 226.455C329.248 226.975 329.648 227.728 329.755 228.715H327.835C327.768 228.262 327.561 227.908 327.215 227.655C326.881 227.402 326.435 227.275 325.875 227.275C325.301 227.275 324.861 227.388 324.555 227.615C324.261 227.842 324.115 228.142 324.115 228.515C324.115 228.755 324.201 228.968 324.375 229.155C324.561 229.328 324.821 229.482 325.155 229.615C325.501 229.735 325.908 229.842 326.375 229.935C327.055 230.082 327.668 230.255 328.215 230.455C328.775 230.642 329.228 230.928 329.575 231.315C329.921 231.688 330.095 232.235 330.095 232.955C330.108 233.582 329.948 234.135 329.615 234.615C329.295 235.082 328.841 235.448 328.255 235.715C327.668 235.982 326.968 236.115 326.155 236.115ZM336.16 235.875C335.52 235.875 334.966 235.775 334.5 235.575C334.033 235.375 333.673 235.042 333.42 234.575C333.166 234.108 333.04 233.475 333.04 232.675V227.575H331.32V225.895H333.04L333.3 223.395H335.04V225.895H337.88V227.575H335.04V232.695C335.04 233.268 335.16 233.662 335.4 233.875C335.64 234.075 336.053 234.175 336.64 234.175H337.78V235.875H336.16ZM343.407 236.115C342.58 236.115 341.894 235.975 341.347 235.695C340.8 235.415 340.394 235.042 340.127 234.575C339.86 234.108 339.727 233.602 339.727 233.055C339.727 232.402 339.894 231.842 340.227 231.375C340.574 230.908 341.067 230.548 341.707 230.295C342.347 230.042 343.12 229.915 344.027 229.915H346.647C346.647 229.328 346.554 228.848 346.367 228.475C346.194 228.088 345.934 227.802 345.587 227.615C345.254 227.415 344.834 227.315 344.327 227.315C343.727 227.315 343.207 227.462 342.767 227.755C342.327 228.048 342.054 228.482 341.947 229.055H339.947C340.027 228.335 340.267 227.722 340.667 227.215C341.08 226.708 341.607 226.322 342.247 226.055C342.9 225.788 343.594 225.655 344.327 225.655C345.26 225.655 346.047 225.822 346.687 226.155C347.327 226.488 347.814 226.962 348.147 227.575C348.48 228.175 348.647 228.888 348.647 229.715V235.875H346.907L346.747 234.175C346.614 234.442 346.44 234.695 346.227 234.935C346.027 235.175 345.787 235.382 345.507 235.555C345.24 235.728 344.927 235.862 344.567 235.955C344.22 236.062 343.834 236.115 343.407 236.115ZM343.787 234.495C344.214 234.495 344.6 234.408 344.947 234.235C345.294 234.062 345.587 233.828 345.827 233.535C346.08 233.228 346.267 232.888 346.387 232.515C346.52 232.142 346.594 231.755 346.607 231.355V231.315H344.227C343.654 231.315 343.187 231.388 342.827 231.535C342.467 231.668 342.207 231.855 342.047 232.095C341.9 232.335 341.827 232.615 341.827 232.935C341.827 233.255 341.9 233.535 342.047 233.775C342.207 234.002 342.434 234.182 342.727 234.315C343.02 234.435 343.374 234.495 343.787 234.495ZM351.18 235.875V225.895H352.96L353.1 227.635C353.42 227.022 353.874 226.542 354.46 226.195C355.047 225.835 355.727 225.655 356.5 225.655C357.3 225.655 357.987 225.822 358.56 226.155C359.134 226.475 359.574 226.962 359.88 227.615C360.2 228.255 360.36 229.068 360.36 230.055V235.875H358.36V230.255C358.36 229.308 358.154 228.588 357.74 228.095C357.34 227.602 356.747 227.355 355.96 227.355C355.427 227.355 354.947 227.488 354.52 227.755C354.107 228.008 353.78 228.375 353.54 228.855C353.3 229.335 353.18 229.928 353.18 230.635V235.875H351.18ZM367.399 236.115C366.439 236.115 365.586 235.888 364.839 235.435C364.106 234.982 363.532 234.362 363.119 233.575C362.719 232.775 362.519 231.875 362.519 230.875C362.519 229.862 362.719 228.962 363.119 228.175C363.532 227.388 364.112 226.775 364.859 226.335C365.606 225.882 366.459 225.655 367.419 225.655C368.206 225.655 368.899 225.815 369.499 226.135C370.112 226.442 370.586 226.875 370.919 227.435V221.475H372.919V235.875H371.119L370.919 234.315C370.706 234.622 370.439 234.915 370.119 235.195C369.799 235.462 369.412 235.682 368.959 235.855C368.506 236.028 367.986 236.115 367.399 236.115ZM367.719 234.375C368.346 234.375 368.899 234.228 369.379 233.935C369.859 233.642 370.232 233.235 370.499 232.715C370.766 232.182 370.899 231.568 370.899 230.875C370.899 230.182 370.766 229.575 370.499 229.055C370.232 228.535 369.859 228.128 369.379 227.835C368.899 227.542 368.346 227.395 367.719 227.395C367.106 227.395 366.559 227.542 366.079 227.835C365.599 228.128 365.226 228.535 364.959 229.055C364.692 229.575 364.559 230.182 364.559 230.875C364.559 231.568 364.692 232.182 364.959 232.715C365.226 233.235 365.599 233.642 366.079 233.935C366.559 234.228 367.106 234.375 367.719 234.375Z" fill="white"/>
<rect x="459" y="207.875" width="101" height="42" rx="12" fill="#333333" fill-opacity="0.5"/>
<path d="M480.44 235.875V221.875H484.86C486.487 221.875 487.833 222.162 488.9 222.735C489.967 223.308 490.753 224.122 491.26 225.175C491.78 226.215 492.04 227.455 492.04 228.895C492.04 230.335 491.78 231.575 491.26 232.615C490.753 233.655 489.967 234.462 488.9 235.035C487.833 235.595 486.487 235.875 484.86 235.875H480.44ZM482.44 234.195H484.78C486.073 234.195 487.1 233.982 487.86 233.555C488.62 233.128 489.16 232.522 489.48 231.735C489.813 230.935 489.98 229.988 489.98 228.895C489.98 227.788 489.813 226.835 489.48 226.035C489.16 225.235 488.62 224.622 487.86 224.195C487.1 223.768 486.073 223.555 484.78 223.555H482.44V234.195ZM498.924 236.115C497.951 236.115 497.091 235.902 496.344 235.475C495.598 235.035 495.011 234.428 494.584 233.655C494.171 232.868 493.964 231.955 493.964 230.915C493.964 229.862 494.171 228.942 494.584 228.155C494.998 227.368 495.578 226.755 496.324 226.315C497.084 225.875 497.958 225.655 498.944 225.655C499.931 225.655 500.778 225.875 501.484 226.315C502.204 226.742 502.751 227.315 503.124 228.035C503.511 228.755 503.704 229.548 503.704 230.415C503.704 230.548 503.704 230.695 503.704 230.855C503.704 231.002 503.698 231.168 503.684 231.355H495.424V229.935H501.724C501.684 229.122 501.404 228.482 500.884 228.015C500.364 227.548 499.711 227.315 498.924 227.315C498.391 227.315 497.891 227.435 497.424 227.675C496.971 227.915 496.604 228.268 496.324 228.735C496.058 229.202 495.924 229.788 495.924 230.495V231.075C495.924 231.808 496.058 232.428 496.324 232.935C496.604 233.428 496.971 233.808 497.424 234.075C497.878 234.328 498.371 234.455 498.904 234.455C499.544 234.455 500.071 234.315 500.484 234.035C500.911 233.742 501.224 233.355 501.424 232.875H503.424C503.251 233.488 502.958 234.042 502.544 234.535C502.131 235.015 501.618 235.402 501.004 235.695C500.404 235.975 499.711 236.115 498.924 236.115ZM506.446 235.875V227.575H504.986V225.895H506.446V224.435C506.446 223.742 506.56 223.175 506.786 222.735C507.026 222.295 507.373 221.975 507.826 221.775C508.28 221.575 508.826 221.475 509.466 221.475H510.506V223.175H509.786C509.306 223.175 508.96 223.275 508.746 223.475C508.546 223.662 508.446 223.995 508.446 224.475V225.895H514.646V235.875H512.646V227.575H508.446V235.875H506.446ZM513.666 224.155C513.293 224.155 512.98 224.035 512.726 223.795C512.473 223.555 512.346 223.248 512.346 222.875C512.346 222.515 512.473 222.222 512.726 221.995C512.98 221.755 513.293 221.635 513.666 221.635C514.053 221.635 514.366 221.755 514.606 221.995C514.86 222.222 514.986 222.515 514.986 222.875C514.986 223.248 514.86 223.555 514.606 223.795C514.366 224.035 514.053 224.155 513.666 224.155ZM517.508 235.875V225.895H519.288L519.428 227.635C519.748 227.022 520.202 226.542 520.788 226.195C521.375 225.835 522.055 225.655 522.828 225.655C523.628 225.655 524.315 225.822 524.888 226.155C525.462 226.475 525.902 226.962 526.208 227.615C526.528 228.255 526.688 229.068 526.688 230.055V235.875H524.688V230.255C524.688 229.308 524.482 228.588 524.068 228.095C523.668 227.602 523.075 227.355 522.288 227.355C521.755 227.355 521.275 227.488 520.848 227.755C520.435 228.008 520.108 228.375 519.868 228.855C519.628 229.335 519.508 229.928 519.508 230.635V235.875H517.508ZM533.807 236.115C532.834 236.115 531.974 235.902 531.227 235.475C530.481 235.035 529.894 234.428 529.467 233.655C529.054 232.868 528.847 231.955 528.847 230.915C528.847 229.862 529.054 228.942 529.467 228.155C529.881 227.368 530.461 226.755 531.207 226.315C531.967 225.875 532.841 225.655 533.827 225.655C534.814 225.655 535.661 225.875 536.367 226.315C537.087 226.742 537.634 227.315 538.007 228.035C538.394 228.755 538.587 229.548 538.587 230.415C538.587 230.548 538.587 230.695 538.587 230.855C538.587 231.002 538.581 231.168 538.567 231.355H530.307V229.935H536.607C536.567 229.122 536.287 228.482 535.767 228.015C535.247 227.548 534.594 227.315 533.807 227.315C533.274 227.315 532.774 227.435 532.307 227.675C531.854 227.915 531.487 228.268 531.207 228.735C530.941 229.202 530.807 229.788 530.807 230.495V231.075C530.807 231.808 530.941 232.428 531.207 232.935C531.487 233.428 531.854 233.808 532.307 234.075C532.761 234.328 533.254 234.455 533.787 234.455C534.427 234.455 534.954 234.315 535.367 234.035C535.794 233.742 536.107 233.355 536.307 232.875H538.307C538.134 233.488 537.841 234.042 537.427 234.535C537.014 235.015 536.501 235.402 535.887 235.695C535.287 235.975 534.594 236.115 533.807 236.115Z" fill="white"/>
<rect x="624" y="207.875" width="100" height="42" rx="12" fill="#333333" fill-opacity="0.5"/>
<path d="M645.44 235.875V221.875H647.44V235.875H645.44ZM654.743 236.115C653.783 236.115 652.929 235.888 652.183 235.435C651.449 234.982 650.876 234.362 650.463 233.575C650.063 232.775 649.863 231.875 649.863 230.875C649.863 229.862 650.063 228.962 650.463 228.175C650.876 227.388 651.456 226.775 652.203 226.335C652.949 225.882 653.803 225.655 654.763 225.655C655.549 225.655 656.243 225.815 656.843 226.135C657.456 226.442 657.929 226.875 658.263 227.435V221.475H660.263V235.875H658.463L658.263 234.315C658.049 234.622 657.783 234.915 657.463 235.195C657.143 235.462 656.756 235.682 656.303 235.855C655.849 236.028 655.329 236.115 654.743 236.115ZM655.063 234.375C655.689 234.375 656.243 234.228 656.723 233.935C657.203 233.642 657.576 233.235 657.843 232.715C658.109 232.182 658.243 231.568 658.243 230.875C658.243 230.182 658.109 229.575 657.843 229.055C657.576 228.535 657.203 228.128 656.723 227.835C656.243 227.542 655.689 227.395 655.063 227.395C654.449 227.395 653.903 227.542 653.423 227.835C652.943 228.128 652.569 228.535 652.303 229.055C652.036 229.575 651.903 230.182 651.903 230.875C651.903 231.568 652.036 232.182 652.303 232.715C652.569 233.235 652.943 233.642 653.423 233.935C653.903 234.228 654.449 234.375 655.063 234.375ZM667.557 236.115C666.584 236.115 665.724 235.902 664.977 235.475C664.231 235.035 663.644 234.428 663.217 233.655C662.804 232.868 662.597 231.955 662.597 230.915C662.597 229.862 662.804 228.942 663.217 228.155C663.631 227.368 664.211 226.755 664.957 226.315C665.717 225.875 666.591 225.655 667.577 225.655C668.564 225.655 669.411 225.875 670.117 226.315C670.837 226.742 671.384 227.315 671.757 228.035C672.144 228.755 672.337 229.548 672.337 230.415C672.337 230.548 672.337 230.695 672.337 230.855C672.337 231.002 672.331 231.168 672.317 231.355H664.057V229.935H670.357C670.317 229.122 670.037 228.482 669.517 228.015C668.997 227.548 668.344 227.315 667.557 227.315C667.024 227.315 666.524 227.435 666.057 227.675C665.604 227.915 665.237 228.268 664.957 228.735C664.691 229.202 664.557 229.788 664.557 230.495V231.075C664.557 231.808 664.691 232.428 664.957 232.935C665.237 233.428 665.604 233.808 666.057 234.075C666.511 234.328 667.004 234.455 667.537 234.455C668.177 234.455 668.704 234.315 669.117 234.035C669.544 233.742 669.857 233.355 670.057 232.875H672.057C671.884 233.488 671.591 234.042 671.177 234.535C670.764 235.015 670.251 235.402 669.637 235.695C669.037 235.975 668.344 236.115 667.557 236.115ZM677.899 236.115C677.073 236.115 676.386 235.975 675.839 235.695C675.293 235.415 674.886 235.042 674.619 234.575C674.353 234.108 674.219 233.602 674.219 233.055C674.219 232.402 674.386 231.842 674.719 231.375C675.066 230.908 675.559 230.548 676.199 230.295C676.839 230.042 677.613 229.915 678.519 229.915H681.139C681.139 229.328 681.046 228.848 680.859 228.475C680.686 228.088 680.426 227.802 680.079 227.615C679.746 227.415 679.326 227.315 678.819 227.315C678.219 227.315 677.699 227.462 677.259 227.755C676.819 228.048 676.546 228.482 676.439 229.055H674.439C674.519 228.335 674.759 227.722 675.159 227.215C675.573 226.708 676.099 226.322 676.739 226.055C677.393 225.788 678.086 225.655 678.819 225.655C679.753 225.655 680.539 225.822 681.179 226.155C681.819 226.488 682.306 226.962 682.639 227.575C682.973 228.175 683.139 228.888 683.139 229.715V235.875H681.399L681.239 234.175C681.106 234.442 680.933 234.695 680.719 234.935C680.519 235.175 680.279 235.382 679.999 235.555C679.733 235.728 679.419 235.862 679.059 235.955C678.713 236.062 678.326 236.115 677.899 236.115ZM678.279 234.495C678.706 234.495 679.093 234.408 679.439 234.235C679.786 234.062 680.079 233.828 680.319 233.535C680.573 233.228 680.759 232.888 680.879 232.515C681.013 232.142 681.086 231.755 681.099 231.355V231.315H678.719C678.146 231.315 677.679 231.388 677.319 231.535C676.959 231.668 676.699 231.855 676.539 232.095C676.393 232.335 676.319 232.615 676.319 232.935C676.319 233.255 676.393 233.535 676.539 233.775C676.699 234.002 676.926 234.182 677.219 234.315C677.513 234.435 677.866 234.495 678.279 234.495ZM689.578 235.875C688.938 235.875 688.384 235.775 687.918 235.575C687.451 235.375 687.091 235.042 686.838 234.575C686.584 234.108 686.458 233.475 686.458 232.675V227.575H684.738V225.895H686.458L686.718 223.395H688.458V225.895H691.298V227.575H688.458V232.695C688.458 233.268 688.578 233.662 688.818 233.875C689.058 234.075 689.471 234.175 690.058 234.175H691.198V235.875H689.578ZM697.792 236.115C696.818 236.115 695.958 235.902 695.212 235.475C694.465 235.035 693.878 234.428 693.452 233.655C693.038 232.868 692.832 231.955 692.832 230.915C692.832 229.862 693.038 228.942 693.452 228.155C693.865 227.368 694.445 226.755 695.192 226.315C695.952 225.875 696.825 225.655 697.812 225.655C698.798 225.655 699.645 225.875 700.352 226.315C701.072 226.742 701.618 227.315 701.992 228.035C702.378 228.755 702.572 229.548 702.572 230.415C702.572 230.548 702.572 230.695 702.572 230.855C702.572 231.002 702.565 231.168 702.552 231.355H694.292V229.935H700.592C700.552 229.122 700.272 228.482 699.752 228.015C699.232 227.548 698.578 227.315 697.792 227.315C697.258 227.315 696.758 227.435 696.292 227.675C695.838 227.915 695.472 228.268 695.192 228.735C694.925 229.202 694.792 229.788 694.792 230.495V231.075C694.792 231.808 694.925 232.428 695.192 232.935C695.472 233.428 695.838 233.808 696.292 234.075C696.745 234.328 697.238 234.455 697.772 234.455C698.412 234.455 698.938 234.315 699.352 234.035C699.778 233.742 700.092 233.355 700.292 232.875H702.292C702.118 233.488 701.825 234.042 701.412 234.535C700.998 235.015 700.485 235.402 699.872 235.695C699.272 235.975 698.578 236.115 697.792 236.115Z" fill="white"/>
<rect x="788" y="207.875" width="104" height="42" rx="12" fill="#333333" fill-opacity="0.5"/>
<path d="M809.44 235.875V221.875H813.86C815.487 221.875 816.833 222.162 817.9 222.735C818.967 223.308 819.753 224.122 820.26 225.175C820.78 226.215 821.04 227.455 821.04 228.895C821.04 230.335 820.78 231.575 820.26 232.615C819.753 233.655 818.967 234.462 817.9 235.035C816.833 235.595 815.487 235.875 813.86 235.875H809.44ZM811.44 234.195H813.78C815.073 234.195 816.1 233.982 816.86 233.555C817.62 233.128 818.16 232.522 818.48 231.735C818.813 230.935 818.98 229.988 818.98 228.895C818.98 227.788 818.813 226.835 818.48 226.035C818.16 225.235 817.62 224.622 816.86 224.195C816.1 223.768 815.073 223.555 813.78 223.555H811.44V234.195ZM827.924 236.115C826.951 236.115 826.091 235.902 825.344 235.475C824.598 235.035 824.011 234.428 823.584 233.655C823.171 232.868 822.964 231.955 822.964 230.915C822.964 229.862 823.171 228.942 823.584 228.155C823.998 227.368 824.578 226.755 825.324 226.315C826.084 225.875 826.958 225.655 827.944 225.655C828.931 225.655 829.778 225.875 830.484 226.315C831.204 226.742 831.751 227.315 832.124 228.035C832.511 228.755 832.704 229.548 832.704 230.415C832.704 230.548 832.704 230.695 832.704 230.855C832.704 231.002 832.698 231.168 832.684 231.355H824.424V229.935H830.724C830.684 229.122 830.404 228.482 829.884 228.015C829.364 227.548 828.711 227.315 827.924 227.315C827.391 227.315 826.891 227.435 826.424 227.675C825.971 227.915 825.604 228.268 825.324 228.735C825.058 229.202 824.924 229.788 824.924 230.495V231.075C824.924 231.808 825.058 232.428 825.324 232.935C825.604 233.428 825.971 233.808 826.424 234.075C826.878 234.328 827.371 234.455 827.904 234.455C828.544 234.455 829.071 234.315 829.484 234.035C829.911 233.742 830.224 233.355 830.424 232.875H832.424C832.251 233.488 831.958 234.042 831.544 234.535C831.131 235.015 830.618 235.402 830.004 235.695C829.404 235.975 828.711 236.115 827.924 236.115ZM838.826 236.115C838 236.115 837.26 235.975 836.606 235.695C835.966 235.415 835.453 235.022 835.066 234.515C834.693 234.008 834.466 233.422 834.386 232.755H836.406C836.486 233.062 836.626 233.348 836.826 233.615C837.026 233.882 837.293 234.095 837.626 234.255C837.96 234.415 838.36 234.495 838.826 234.495C839.266 234.495 839.626 234.435 839.906 234.315C840.186 234.182 840.393 234.008 840.526 233.795C840.66 233.582 840.726 233.348 840.726 233.095C840.726 232.735 840.633 232.462 840.446 232.275C840.273 232.088 840.006 231.942 839.646 231.835C839.3 231.715 838.88 231.602 838.386 231.495C837.96 231.415 837.533 231.308 837.106 231.175C836.68 231.042 836.293 230.868 835.946 230.655C835.6 230.442 835.32 230.175 835.106 229.855C834.893 229.535 834.786 229.142 834.786 228.675C834.786 228.088 834.94 227.568 835.246 227.115C835.553 226.662 835.986 226.308 836.546 226.055C837.106 225.788 837.773 225.655 838.546 225.655C839.653 225.655 840.546 225.922 841.226 226.455C841.92 226.975 842.32 227.728 842.426 228.715H840.506C840.44 228.262 840.233 227.908 839.886 227.655C839.553 227.402 839.106 227.275 838.546 227.275C837.973 227.275 837.533 227.388 837.226 227.615C836.933 227.842 836.786 228.142 836.786 228.515C836.786 228.755 836.873 228.968 837.046 229.155C837.233 229.328 837.493 229.482 837.826 229.615C838.173 229.735 838.58 229.842 839.046 229.935C839.726 230.082 840.34 230.255 840.886 230.455C841.446 230.642 841.9 230.928 842.246 231.315C842.593 231.688 842.766 232.235 842.766 232.955C842.78 233.582 842.62 234.135 842.286 234.615C841.966 235.082 841.513 235.448 840.926 235.715C840.34 235.982 839.64 236.115 838.826 236.115ZM845.262 235.875V225.895H847.262V235.875H845.262ZM846.262 223.955C845.888 223.955 845.575 223.835 845.322 223.595C845.068 223.355 844.942 223.048 844.942 222.675C844.942 222.315 845.068 222.022 845.322 221.795C845.575 221.555 845.888 221.435 846.262 221.435C846.635 221.435 846.948 221.555 847.202 221.795C847.455 222.022 847.582 222.315 847.582 222.675C847.582 223.048 847.455 223.355 847.202 223.595C846.948 223.835 846.635 223.955 846.262 223.955ZM854.202 240.515C853.282 240.515 852.468 240.395 851.762 240.155C851.068 239.928 850.528 239.575 850.142 239.095C849.755 238.615 849.562 238.028 849.562 237.335C849.562 236.975 849.642 236.615 849.802 236.255C849.962 235.895 850.222 235.548 850.582 235.215C850.942 234.882 851.422 234.582 852.022 234.315L853.122 235.195C852.468 235.462 852.022 235.768 851.782 236.115C851.555 236.475 851.442 236.815 851.442 237.135C851.442 237.535 851.562 237.868 851.802 238.135C852.042 238.402 852.368 238.602 852.782 238.735C853.195 238.868 853.668 238.935 854.202 238.935C854.708 238.935 855.148 238.862 855.522 238.715C855.908 238.568 856.208 238.362 856.422 238.095C856.635 237.828 856.742 237.515 856.742 237.155C856.742 236.742 856.582 236.388 856.262 236.095C855.955 235.815 855.355 235.648 854.462 235.595C853.715 235.542 853.075 235.468 852.542 235.375C852.022 235.282 851.575 235.168 851.202 235.035C850.842 234.902 850.535 234.755 850.282 234.595C850.042 234.422 849.835 234.248 849.662 234.075V233.615L851.662 231.575L853.242 232.115L851.102 234.155L851.522 233.255C851.668 233.362 851.808 233.455 851.942 233.535C852.075 233.615 852.255 233.688 852.482 233.755C852.708 233.822 853.008 233.882 853.382 233.935C853.768 233.988 854.275 234.042 854.902 234.095C855.795 234.162 856.515 234.322 857.062 234.575C857.622 234.828 858.028 235.168 858.282 235.595C858.535 236.008 858.662 236.508 858.662 237.095C858.662 237.668 858.502 238.215 858.182 238.735C857.862 239.255 857.375 239.682 856.722 240.015C856.068 240.348 855.228 240.515 854.202 240.515ZM854.182 232.795C853.342 232.795 852.622 232.635 852.022 232.315C851.435 231.995 850.982 231.568 850.662 231.035C850.355 230.488 850.202 229.888 850.202 229.235C850.202 228.568 850.355 227.968 850.662 227.435C850.982 226.902 851.435 226.475 852.022 226.155C852.622 225.822 853.342 225.655 854.182 225.655C855.022 225.655 855.735 225.822 856.322 226.155C856.922 226.475 857.375 226.902 857.682 227.435C858.002 227.968 858.162 228.568 858.162 229.235C858.162 229.888 858.002 230.488 857.682 231.035C857.375 231.568 856.922 231.995 856.322 232.315C855.735 232.635 855.022 232.795 854.182 232.795ZM854.182 231.195C854.835 231.195 855.355 231.028 855.742 230.695C856.128 230.362 856.322 229.875 856.322 229.235C856.322 228.595 856.128 228.108 855.742 227.775C855.355 227.442 854.835 227.275 854.182 227.275C853.542 227.275 853.022 227.442 852.622 227.775C852.222 228.108 852.022 228.595 852.022 229.235C852.022 229.875 852.222 230.362 852.622 230.695C853.022 231.028 853.542 231.195 854.182 231.195ZM855.802 227.475L855.322 225.895H859.462V227.255L855.802 227.475ZM861.469 235.875V225.895H863.249L863.389 227.635C863.709 227.022 864.163 226.542 864.749 226.195C865.336 225.835 866.016 225.655 866.789 225.655C867.589 225.655 868.276 225.822 868.849 226.155C869.423 226.475 869.863 226.962 870.169 227.615C870.489 228.255 870.649 229.068 870.649 230.055V235.875H868.649V230.255C868.649 229.308 868.443 228.588 868.029 228.095C867.629 227.602 867.036 227.355 866.249 227.355C865.716 227.355 865.236 227.488 864.809 227.755C864.396 228.008 864.069 228.375 863.829 228.855C863.589 229.335 863.469 229.928 863.469 230.635V235.875H861.469Z" fill="white"/>
<rect x="956" y="207.875" width="80" height="42" rx="12" fill="#333333" fill-opacity="0.5"/>
<path d="M980.72 235.875V223.515H976.56V221.875H986.86V223.515H982.72V235.875H980.72ZM991.588 236.115C990.615 236.115 989.755 235.902 989.008 235.475C988.262 235.035 987.675 234.428 987.248 233.655C986.835 232.868 986.628 231.955 986.628 230.915C986.628 229.862 986.835 228.942 987.248 228.155C987.662 227.368 988.242 226.755 988.988 226.315C989.748 225.875 990.622 225.655 991.608 225.655C992.595 225.655 993.442 225.875 994.148 226.315C994.868 226.742 995.415 227.315 995.788 228.035C996.175 228.755 996.368 229.548 996.368 230.415C996.368 230.548 996.368 230.695 996.368 230.855C996.368 231.002 996.362 231.168 996.348 231.355H988.088V229.935H994.388C994.348 229.122 994.068 228.482 993.548 228.015C993.028 227.548 992.375 227.315 991.588 227.315C991.055 227.315 990.555 227.435 990.088 227.675C989.635 227.915 989.268 228.268 988.988 228.735C988.722 229.202 988.588 229.788 988.588 230.495V231.075C988.588 231.808 988.722 232.428 988.988 232.935C989.268 233.428 989.635 233.808 990.088 234.075C990.542 234.328 991.035 234.455 991.568 234.455C992.208 234.455 992.735 234.315 993.148 234.035C993.575 233.742 993.888 233.355 994.088 232.875H996.088C995.915 233.488 995.622 234.042 995.208 234.535C994.795 235.015 994.282 235.402 993.668 235.695C993.068 235.975 992.375 236.115 991.588 236.115ZM1002.49 236.115C1001.66 236.115 1000.92 235.975 1000.27 235.695C999.63 235.415 999.117 235.022 998.73 234.515C998.357 234.008 998.13 233.422 998.05 232.755H1000.07C1000.15 233.062 1000.29 233.348 1000.49 233.615C1000.69 233.882 1000.96 234.095 1001.29 234.255C1001.62 234.415 1002.02 234.495 1002.49 234.495C1002.93 234.495 1003.29 234.435 1003.57 234.315C1003.85 234.182 1004.06 234.008 1004.19 233.795C1004.32 233.582 1004.39 233.348 1004.39 233.095C1004.39 232.735 1004.3 232.462 1004.11 232.275C1003.94 232.088 1003.67 231.942 1003.31 231.835C1002.96 231.715 1002.54 231.602 1002.05 231.495C1001.62 231.415 1001.2 231.308 1000.77 231.175C1000.34 231.042 999.957 230.868 999.61 230.655C999.264 230.442 998.984 230.175 998.77 229.855C998.557 229.535 998.45 229.142 998.45 228.675C998.45 228.088 998.604 227.568 998.91 227.115C999.217 226.662 999.65 226.308 1000.21 226.055C1000.77 225.788 1001.44 225.655 1002.21 225.655C1003.32 225.655 1004.21 225.922 1004.89 226.455C1005.58 226.975 1005.98 227.728 1006.09 228.715H1004.17C1004.1 228.262 1003.9 227.908 1003.55 227.655C1003.22 227.402 1002.77 227.275 1002.21 227.275C1001.64 227.275 1001.2 227.388 1000.89 227.615C1000.6 227.842 1000.45 228.142 1000.45 228.515C1000.45 228.755 1000.54 228.968 1000.71 229.155C1000.9 229.328 1001.16 229.482 1001.49 229.615C1001.84 229.735 1002.24 229.842 1002.71 229.935C1003.39 230.082 1004 230.255 1004.55 230.455C1005.11 230.642 1005.56 230.928 1005.91 231.315C1006.26 231.688 1006.43 232.235 1006.43 232.955C1006.44 233.582 1006.28 234.135 1005.95 234.615C1005.63 235.082 1005.18 235.448 1004.59 235.715C1004 235.982 1003.3 236.115 1002.49 236.115ZM1012.5 235.875C1011.86 235.875 1011.3 235.775 1010.84 235.575C1010.37 235.375 1010.01 235.042 1009.76 234.575C1009.5 234.108 1009.38 233.475 1009.38 232.675V227.575H1007.66V225.895H1009.38L1009.64 223.395H1011.38V225.895H1014.22V227.575H1011.38V232.695C1011.38 233.268 1011.5 233.662 1011.74 233.875C1011.98 234.075 1012.39 234.175 1012.98 234.175H1014.12V235.875H1012.5Z" fill="white"/>
<path d="M459.707 229.707C460.098 229.317 460.098 228.683 459.707 228.293L453.343 221.929C452.953 221.538 452.319 221.538 451.929 221.929C451.538 222.319 451.538 222.953 451.929 223.343L457.586 229L451.929 234.657C451.538 235.047 451.538 235.681 451.929 236.071C452.319 236.462 452.953 236.462 453.343 236.071L459.707 229.707ZM395 230L459 230L459 228L395 228L395 230Z" fill="#868686"/>
<path d="M624.707 229.707C625.098 229.317 625.098 228.683 624.707 228.293L618.343 221.929C617.953 221.538 617.319 221.538 616.929 221.929C616.538 222.319 616.538 222.953 616.929 223.343L622.586 229L616.929 234.657C616.538 235.047 616.538 235.681 616.929 236.071C617.319 236.462 617.953 236.462 618.343 236.071L624.707 229.707ZM560 230L624 230L624 228L560 228L560 230Z" fill="#868686"/>
<path d="M788.707 229.707C789.098 229.317 789.098 228.683 788.707 228.293L782.343 221.929C781.953 221.538 781.319 221.538 780.929 221.929C780.538 222.319 780.538 222.953 780.929 223.343L786.586 229L780.929 234.657C780.538 235.047 780.538 235.681 780.929 236.071C781.319 236.462 781.953 236.462 782.343 236.071L788.707 229.707ZM724 230L788 230L788 228L724 228L724 230Z" fill="#868686"/>
<path d="M956.707 229.707C957.098 229.317 957.098 228.683 956.707 228.293L950.343 221.929C949.953 221.538 949.319 221.538 948.929 221.929C948.538 222.319 948.538 222.953 948.929 223.343L954.586 229L948.929 234.657C948.538 235.047 948.538 235.681 948.929 236.071C949.319 236.462 949.953 236.462 950.343 236.071L956.707 229.707ZM892 230L956 230L956 228L892 228L892 230Z" fill="#868686"/>
<path d="M673.293 206.185C673.683 206.576 674.317 206.576 674.707 206.185L681.071 199.821C681.462 199.431 681.462 198.798 681.071 198.407C680.681 198.017 680.047 198.017 679.657 198.407L674 204.064L668.343 198.407C667.953 198.017 667.319 198.017 666.929 198.407C666.538 198.798 666.538 199.431 666.929 199.821L673.293 206.185ZM675 205.478V124H673V205.478H675ZM686 113H984V111H686V113ZM995 124V207.875H997V124H995ZM984 113C990.075 113 995 117.925 995 124H997C997 116.82 991.18 111 984 111V113ZM675 124C675 117.925 679.925 113 686 113V111C678.82 111 673 116.82 673 124H675Z" fill="white" fill-opacity="0.5"/>
<path d="M674 205.125V183C674 176.373 679.373 171 686 171H984C990.627 171 996 176.373 996 183V206" stroke="#868686" stroke-width="2"/>
</svg>
